<svg width="40" height="40" viewBox="0 0 40 40" fill="none" xmlns="http://www.w3.org/2000/svg">
<rect x="7.3335" y="40" width="40" height="26.6667" rx="1.28" transform="rotate(-90 7.3335 40)" fill="#016FD0"/>
<g clip-path="url(#clip0_301_12)">
<path d="M11.8916 16.8333L9.3335 22.4929H12.3961L12.7756 21.5907H13.6434L14.0229 22.4929H17.3938V21.8043L17.6943 22.4929H19.438L19.7385 21.7897V22.4929H26.7489L27.6015 21.614L28.3997 22.4929L32.0005 22.5L29.4343 19.6788L32.0002 16.8333H28.4554L27.6255 17.696L26.8526 16.8333H19.2262L18.5715 18.2939L17.9008 16.8333H14.8447V17.4986L14.5047 16.8333H11.8916ZM12.4842 17.6371H13.9769L15.6737 21.4748V17.6371H17.3089L18.6194 20.3887L19.8272 17.6371H21.4543V21.6981H20.4641L20.456 18.516L19.0125 21.6981H18.1269L16.6752 18.516V21.6981H14.6385L14.2525 20.7878H12.1665L11.7812 21.6975H10.6899L12.4842 17.6371ZM22.3604 17.6371H26.3863L27.6177 18.9666L28.8887 17.6371H30.1201L28.2492 19.6781L30.1201 21.6955H28.833L27.6015 20.3505L26.3241 21.6955H22.3607V17.6371H22.3604ZM13.2105 18.324L12.523 19.9459H13.8969L13.2105 18.324ZM23.3548 18.4778V19.2191H25.5508V20.0452H23.3548V20.8545H25.8183L26.963 19.6626L25.8669 18.4771H23.3551V18.4778H23.3548Z" fill="white"/>
</g>
<defs>
<clipPath id="clip0_301_12">
<rect width="22.6667" height="5.66667" fill="white" transform="translate(9.3335 16.8333)"/>
</clipPath>
</defs>
</svg>
