<svg width="40" height="40" viewBox="0 0 40 40" fill="none" xmlns="http://www.w3.org/2000/svg">
<g clip-path="url(#clip0_301_25)">
<rect x="6.66699" y="40" width="40" height="26.6667" rx="1.28" transform="rotate(-90 6.66699 40)" fill="#FA3246"/>
<g clip-path="url(#clip1_301_25)">
<path d="M28.0005 19.9998C28.0005 24.4155 24.4162 27.9984 20.0005 27.9984C15.5848 27.9984 12.0005 24.4168 12.0005 19.9998C12.0005 15.5827 15.5821 11.9998 20.0005 11.9998C24.4189 11.9998 28.0005 15.5814 28.0005 19.9998Z" fill="white"/>
<path d="M15.8797 18.105C15.6278 17.9544 15.3427 17.9118 15.0562 17.9531C15.5799 17.3948 15.865 16.7872 15.865 16.1743C15.865 16.1183 15.8637 16.0623 15.857 16.005C15.8304 15.624 15.6545 15.3375 15.3813 15.2415C15.1095 15.1389 14.6085 15.1909 13.8144 16.0024L13.3374 16.5367C13.2055 16.6979 12.7045 17.4561 12.6112 18.2462C12.4553 19.5893 12.5552 20.9297 12.8977 22.117C12.9376 22.2555 13.0655 22.5913 13.3733 22.7152C13.6998 22.8485 14.0102 22.6872 14.2861 22.546L14.3593 22.51L14.6432 22.3834L14.9176 22.2622L15.2521 22.1156C15.4933 22.017 15.7198 21.9264 15.9396 21.7412C16.2328 21.4907 16.4473 21.1643 16.5579 20.7925C16.6152 20.6006 16.6552 20.3901 16.6751 20.1529C16.6925 19.9677 16.7124 19.608 16.6418 19.2922C16.4913 18.5966 16.1448 18.2635 15.8783 18.1063L15.8797 18.105ZM13.3347 19.1083L13.3494 19.2842C13.3467 19.3242 13.368 19.3615 13.404 19.3748C13.436 19.3894 13.4706 19.3828 13.5026 19.3561C13.8011 19.1056 14.2528 18.8818 14.6165 19.007C14.9017 19.1056 15.0949 19.3988 15.1948 19.8811C15.4013 20.8898 14.7098 21.3761 14.2781 21.5747L14.2634 21.5813L13.7104 21.8531C13.7104 21.8531 13.6798 21.8665 13.6452 21.8505C13.6105 21.8331 13.6012 21.8105 13.5785 21.7505C13.2028 20.3635 13.0749 18.9058 13.2148 17.5453C13.2294 17.4427 13.2761 17.3188 13.3547 17.2189L13.8184 16.7232L13.8703 16.6673C14.1222 16.4221 14.3593 16.2995 14.4873 16.3528C14.5939 16.3981 14.6192 16.5673 14.6205 16.7019C14.6418 17.4254 14.2381 18.1636 13.3907 18.9604C13.3907 18.9604 13.3254 19.0137 13.3334 19.1096L13.3347 19.1083Z" fill="#FA3246"/>
<path d="M22.158 13.889C22.0021 13.3561 21.7489 13.2455 21.6757 13.2202C21.0108 13.0083 20.3206 12.9643 19.6503 13.0816C18.6443 13.2668 17.7743 13.7958 17.196 14.5686C16.5897 15.3827 16.3552 16.398 16.5351 17.424C16.7176 18.4553 17.2373 19.2894 18.0474 19.8357C18.9948 20.474 20.2566 20.6685 21.605 20.386C22.4018 20.2128 23.0601 19.9037 23.5691 19.464C23.7969 19.2668 23.8395 19.015 23.8395 18.8391C23.8395 18.8391 23.8515 18.6965 23.7409 18.2475C23.7116 18.1382 23.6637 18.1062 23.5864 18.1062C23.5304 18.1062 23.4718 18.1702 23.4611 18.1835C23.0814 18.6232 22.5018 18.9297 21.7796 19.0723C19.9235 19.4294 18.4964 18.5619 18.142 16.8631C17.9914 16.1262 18.1167 15.4214 18.5004 14.8751C18.8855 14.3194 19.5184 13.9517 20.2793 13.8371C20.8589 13.7531 21.4491 13.8238 21.9794 14.0449C21.9794 14.0449 22.2073 14.1116 22.158 13.8877V13.889Z" fill="#FA3246"/>
</g>
</g>
<defs>
<clipPath id="clip0_301_25">
<rect x="6.66699" y="40" width="40" height="26.6667" rx="1.28" transform="rotate(-90 6.66699 40)" fill="white"/>
</clipPath>
<clipPath id="clip1_301_25">
<rect width="16" height="15.9987" fill="white" transform="translate(12 12)"/>
</clipPath>
</defs>
</svg>
