<svg width="40" height="40" viewBox="0 0 40 40" fill="none" xmlns="http://www.w3.org/2000/svg">
<rect x="6.66699" y="40" width="40" height="26.6667" rx="1.28" transform="rotate(-90 6.66699 40)" fill="#004187"/>
<g clip-path="url(#clip0_301_10)">
<path fill-rule="evenodd" clip-rule="evenodd" d="M27.9396 17.5368C26.7442 15.843 24.759 14.8333 22.7397 14.8333C20.7203 14.8333 18.7341 15.843 17.5408 17.5368L17.48 17.6243H18.986L19.002 17.6062C20.0266 16.5474 21.3639 15.9892 22.7397 15.9892C24.1154 15.9892 25.4528 16.5474 26.4795 17.6062L26.4966 17.6243H28.0004L27.9396 17.5368Z" fill="#E60012"/>
<path d="M16.8824 23.1708L16.8546 23.1996C16.3914 23.6703 15.8567 23.9201 15.3059 23.9201C14.1554 23.9201 13.3197 23.0566 13.3197 21.8666C13.3197 20.6765 14.1554 19.8131 15.3059 19.8131C15.8567 19.8131 16.3925 20.0639 16.8546 20.5356L16.8824 20.5645L17.622 19.669L17.6028 19.6455C16.9869 18.9176 16.2484 18.5643 15.3412 18.5643C14.4339 18.5643 13.5982 18.8706 12.9974 19.4235C12.3452 20.0212 12.0005 20.8654 12.0005 21.8655C12.0005 22.8656 12.3452 23.7109 12.9974 24.3096C13.5972 24.8646 14.4297 25.1699 15.3412 25.1699C16.2526 25.1699 16.988 24.8155 17.6028 24.0887L17.622 24.0663L16.8824 23.1708Z" fill="white"/>
<path d="M19.6765 18.6665H18.3701V25.0479H19.6765V18.6665Z" fill="white"/>
<path d="M24.7986 23.6605C24.4507 23.8729 24.1252 23.9796 23.8338 23.9796C23.4111 23.9796 23.2201 23.7565 23.2201 23.2602V19.8737H24.5521V18.6719H23.2201V16.6856L21.9382 17.3719V18.6719H20.8325V19.8737H21.9382V23.4758C21.9382 24.4567 22.5199 25.128 23.3877 25.1451C23.9768 25.1568 24.3322 24.9818 24.5478 24.8526L24.5606 24.8441L24.8755 23.6146L24.7976 23.6615L24.7986 23.6605Z" fill="white"/>
<path d="M27.1883 18.6665H25.8809V25.0479H27.1883V18.6665Z" fill="white"/>
</g>
<defs>
<clipPath id="clip0_301_10">
<rect width="16" height="10.3358" fill="white" transform="translate(12.0005 14.8333)"/>
</clipPath>
</defs>
</svg>
