<svg width="40" height="40" viewBox="0 0 40 40" fill="none" xmlns="http://www.w3.org/2000/svg">
<g clip-path="url(#clip0_301_22)">
<rect x="6.66699" y="40" width="40" height="26.6667" rx="1.28" transform="rotate(-90 6.66699 40)" fill="#009B8F"/>
<g clip-path="url(#clip1_301_22)">
<path d="M22.4722 21.3464C22.4356 21.1252 22.3746 20.9107 22.2862 20.7102C22.0045 20.104 21.6118 19.595 21.0273 19.2528C20.1146 18.72 19.0113 18.7242 18.1095 19.2704C17.7012 19.518 17.3648 19.873 17.1492 20.2999C17.0759 20.4451 17.0159 20.596 16.9663 20.75C16.7291 21.5061 16.7384 22.5226 17.1653 23.212C17.3064 23.4379 17.5074 23.6301 17.756 23.7252C18.0025 23.8213 18.296 23.8105 18.5193 23.6668C18.8056 23.4818 18.8562 23.1288 18.8035 22.8141C18.7353 22.412 18.6836 22.0172 18.8309 21.6229C18.8795 21.4973 18.9456 21.3764 19.0423 21.2838C19.1007 21.227 19.1704 21.1815 19.2449 21.1453C19.4004 21.0699 19.5777 21.0348 19.7472 21.0632C20.0464 21.1112 20.2919 21.3438 20.4242 21.6161C20.557 21.8875 20.5937 22.1944 20.6087 22.4978C20.6702 23.8141 20.356 25.1784 20.02 26.443C19.9854 26.5738 19.9492 26.704 19.9115 26.8332C19.8836 26.9335 19.8319 27.0606 19.896 27.1583C19.9239 27.2001 19.9668 27.2291 20.0133 27.2477C20.2087 27.3262 20.3679 27.2074 20.4986 27.0751C21.2712 26.2983 21.7663 25.2963 22.1053 24.2668C22.2319 23.8818 22.3394 23.49 22.4128 23.0916C22.5131 22.5459 22.5689 21.9231 22.4717 21.3469" fill="white"/>
<path d="M28.0005 15.26C28.0005 15.0626 27.8258 14.9324 27.6372 14.9391C27.4465 14.9453 27.2692 15.043 27.0951 15.1096C23.6982 16.4016 19.8682 16.6471 16.2884 16.1303C15.676 16.0419 15.0558 15.9189 14.4398 15.8228C14.0553 15.7623 13.6739 15.675 13.2847 15.6461C12.9535 15.6213 12.5416 15.6089 12.2744 15.8393C11.9204 16.1437 11.9457 16.722 12.1457 17.1039C12.386 17.5623 12.8072 17.906 13.246 18.167C13.6718 18.4207 14.1793 18.6905 14.6858 18.659C16.0537 18.5711 17.4191 18.4399 18.7788 18.2631C21.0971 17.9618 23.5276 17.6781 25.7059 16.7789C26.4176 16.4848 27.1199 16.1179 27.7307 15.6435C27.8408 15.5608 28.0005 15.4218 28.0005 15.2605" fill="white"/>
<path d="M18.2598 14.0962C18.2598 14.8337 18.8577 15.4326 19.5967 15.4326C20.3357 15.4326 20.9311 14.8337 20.9311 14.0962C20.9311 13.9866 20.9063 13.8755 20.8592 13.7753C20.7445 13.5329 20.6164 13.4151 20.6293 13.1241C20.6463 12.7319 20.1435 12.7267 19.8722 12.7267C19.576 12.7267 19.2629 12.7675 18.9962 12.9014C18.7838 13.0083 18.5998 13.1727 18.4711 13.3727C18.3399 13.5784 18.2649 13.8202 18.2598 14.0652V14.0957" fill="white"/>
</g>
</g>
<defs>
<clipPath id="clip0_301_22">
<rect x="6.66699" y="40" width="40" height="26.6667" rx="1.28" transform="rotate(-90 6.66699 40)" fill="white"/>
</clipPath>
<clipPath id="clip1_301_22">
<rect width="16" height="14.5457" fill="white" transform="translate(12.0005 12.7267)"/>
</clipPath>
</defs>
</svg>
