<svg width="40" height="40" viewBox="0 0 40 40" fill="none" xmlns="http://www.w3.org/2000/svg">
<rect x="6.66699" y="40" width="40" height="26.6667" rx="1.28" transform="rotate(-90 6.66699 40)" fill="black"/>
<g clip-path="url(#clip0_301_21)">
<path d="M12.7805 22.2968H12.0019C12.0019 21.7306 11.9979 21.1754 12.0034 20.6197C12.0069 20.2544 11.9829 19.8816 12.0439 19.5248C12.2303 18.4244 13.0953 17.7098 14.2122 17.7083C17.0687 17.7048 19.9252 17.7068 22.7812 17.7068C23.7806 17.7068 24.7806 17.6853 25.7791 17.7143C26.6766 17.7402 27.4137 18.0941 27.8165 18.9486C27.9164 19.161 27.9834 19.4094 27.9889 19.6432C28.0094 20.4923 27.9974 21.3423 27.9969 22.1919C27.9969 22.2234 27.9889 22.2548 27.9834 22.2963H27.1968C27.1968 22.2079 27.1968 22.1204 27.1968 22.0325C27.1968 21.3328 27.1968 20.6332 27.1968 19.9336C27.1968 19.0965 26.6176 18.5123 25.7731 18.5098C24.3323 18.5058 22.8916 18.5088 21.4509 18.5088C19.0442 18.5088 16.6374 18.5233 14.2307 18.4993C13.5796 18.4928 12.738 19.103 12.7925 19.9321C12.8429 20.6947 12.8015 21.4638 12.8 22.2299C12.8 22.2453 12.7915 22.2603 12.781 22.2968H12.7805Z" fill="white"/>
</g>
<defs>
<clipPath id="clip0_301_21">
<rect width="16" height="4.59756" fill="white" transform="translate(12.0005 17.7)"/>
</clipPath>
</defs>
</svg>
