<svg width="40" height="40" viewBox="0 0 40 40" fill="none" xmlns="http://www.w3.org/2000/svg">
<g clip-path="url(#clip0_301_23)">
<rect x="6.66699" y="40" width="40" height="26.6667" rx="1.28" transform="rotate(-90 6.66699 40)" fill="#FAE100"/>
<path d="M23.6614 20C24.7458 19.2843 25.4618 18.0582 25.4618 16.662C25.4618 14.4568 23.6731 12.6666 21.4646 12.6666H14.7646C14.6363 12.6666 14.5337 12.7692 14.5337 12.8974V27.1002C14.5337 27.2284 14.6363 27.3333 14.7646 27.3333H21.4646C23.6731 27.3333 25.4618 25.5454 25.4618 23.338C25.4618 21.9417 24.7458 20.7132 23.6614 20ZM20.3732 23.338H19.1139V16.662H20.3732V23.338Z" fill="#1E1E1E"/>
</g>
<defs>
<clipPath id="clip0_301_23">
<rect x="6.66699" y="40" width="40" height="26.6667" rx="1.28" transform="rotate(-90 6.66699 40)" fill="white"/>
</clipPath>
</defs>
</svg>
