<svg width="40" height="40" viewBox="0 0 40 40" fill="none" xmlns="http://www.w3.org/2000/svg">
<rect x="6.66699" y="40" width="40" height="26.6667" rx="1.28" transform="rotate(-90 6.66699 40)" fill="#7C7366"/>
<g clip-path="url(#clip0_301_20)">
<path d="M27.7417 20.1493L27.603 20.062C27.1307 19.5913 26.473 19.3871 25.5956 19.437C24.8646 19.4822 24.2848 19.7705 23.8406 20.0417C23.8406 20.0355 23.8406 20.0293 23.8406 20.0215C23.8406 19.7924 23.8671 19.5446 23.8921 19.303C23.9186 19.0583 23.9451 18.8089 23.9451 18.572C23.9451 18.3351 23.917 18.1029 23.8344 17.9081C23.8141 17.8582 23.7674 17.8286 23.7082 17.8286C23.4728 17.8333 23.0115 17.9954 22.8993 18.0935L22.8385 18.2276C22.8338 18.4894 22.7762 19.2204 22.7185 19.3092C22.7216 19.3061 22.6873 19.398 22.6873 19.398C22.5891 20.4423 22.586 21.3587 22.678 22.1473C22.6889 22.2252 22.8401 22.3453 22.9569 22.3873C23.0848 22.4356 23.4869 22.3281 23.7191 22.2393L23.8064 22.2268C23.8796 22.219 23.9232 22.1567 23.9186 22.0741L23.9248 21.8481C24.0916 21.1686 24.7695 20.3566 25.5706 20.235C26.0226 20.1633 26.3811 20.2786 26.6632 20.5872C26.7021 20.6433 26.7832 21.1311 26.4855 21.6938C26.2626 22.1099 25.8184 22.4606 25.2355 22.6803C24.6823 22.8892 24.0729 22.9749 23.3216 22.9484C23.2905 22.9281 22.6172 22.4731 22.6172 22.4731C22.0218 22.0554 21.2815 21.5348 20.6098 21.2792C20.4929 21.234 20.2809 21.0595 20.1547 20.9535L20.0846 20.8958C19.6965 20.5841 18.9608 20.0947 18.3686 19.6988C18.3686 19.6988 18.1021 19.5196 18.0491 19.4853C18.0491 19.4635 18.0507 19.4183 18.0507 19.4183C18.0662 19.3996 18.4387 19.1767 18.4387 19.1767C18.9593 18.8728 19.1993 18.7216 19.2507 18.6453C19.2398 18.6577 19.3193 18.6048 19.3193 18.6048C19.3224 18.6032 20.6098 17.8738 20.6098 17.8738C21.8473 17.1927 23.2515 16.4197 23.9887 15.6575L24.0246 15.5422L24.0401 15.4378C24.0885 15.2741 24.0931 15.1479 24.051 15.0045C24.0401 14.964 24.0012 14.9157 23.9513 14.9063C23.3762 14.8502 22.6328 15.1947 21.9579 15.8274C21.8052 15.9708 21.6774 16.0409 21.5418 16.1142L21.4389 16.1719C20.6939 16.5958 19.0154 17.6369 18.1364 18.1995C18.194 17.2551 18.3686 15.9116 18.5837 14.791L18.5603 14.657L18.4699 14.4871L18.4013 14.3655L18.3811 14.3608C18.2065 14.272 18.0631 14.3078 17.9587 14.3359L17.7826 14.3998L17.5504 14.484C17.5036 14.4933 17.4709 14.5214 17.4522 14.5666C17.0329 15.5812 16.6823 17.2488 16.5997 18.5829C15.7612 18.0484 14.985 17.6665 14.6063 17.481L14.5954 17.4748L14.5502 17.4655C14.4146 17.4468 14.2478 17.347 14.0857 17.2504C14.0701 17.241 13.7678 17.0447 13.7678 17.0447L13.28 16.7329L13.1522 16.7033C12.9418 16.7392 12.5412 17.0088 12.4228 17.1927C12.4056 17.2161 12.4009 17.2441 12.4009 17.2706C12.4009 17.3096 12.4118 17.3486 12.4228 17.386L12.4446 17.4857L12.468 17.5465C12.7017 17.785 13.2909 18.1855 13.8691 18.4957L14.5393 18.851L15.5648 19.4121L15.7409 19.5492L15.8609 19.6194C15.8609 19.6194 15.8734 19.6272 15.8812 19.6318C15.6084 19.8142 14.0171 20.8771 14.0171 20.8771L13.0353 21.5255C12.9433 21.5894 12.5552 21.7624 12.4695 21.7966C12.256 21.8824 12.0955 22.0164 12.0284 22.1598L12.002 22.2159L12.0284 22.2533L12.1033 22.311L12.203 22.3764L12.3105 22.4512L12.4134 22.4653C12.5864 22.4731 12.842 22.3749 13.3189 22.166C13.7569 21.9712 14.9492 21.2527 15.4572 20.9472L15.6754 20.8163C15.7643 20.8241 15.8656 20.7477 15.9529 20.6807C16.0557 20.5997 16.277 20.4625 16.4126 20.4033C16.4157 20.4018 16.4937 20.3581 16.5654 20.3191C16.5654 20.3425 16.5654 20.3768 16.5654 20.3768C16.5887 21.9338 16.6791 23.0669 16.8475 23.9396L16.8506 23.9552L16.8677 23.9895C16.9519 24.1126 17.047 24.482 17.1311 24.8078L17.3259 25.4577L17.3805 25.5184C17.4911 25.5933 17.8278 25.7226 18.0538 25.6961L18.1099 25.6899L18.1457 25.6104C18.166 25.5138 18.1707 25.4187 18.1707 25.3127C18.1707 25.1927 18.1629 25.0618 18.1504 24.9028L18.1364 24.6675C18.0647 23.5796 17.993 22.0086 17.993 20.9659C17.993 20.9363 17.993 20.9114 17.993 20.8833C18.1769 21.0002 18.9858 21.5099 18.9858 21.5099C20.362 22.4014 22.438 23.7495 23.6941 24.1064C23.7596 24.1251 23.8282 24.1111 23.8765 24.0643L24.0697 23.9396L24.1056 23.9256C24.1773 23.8913 24.2272 23.7698 24.235 23.6373C25.2932 23.5843 26.7691 23.1775 27.5593 22.1847C27.8648 21.7998 28.0035 21.3291 28.0035 20.9239C28.0035 20.5935 27.9116 20.3082 27.7448 20.1508" fill="#F8B500"/>
</g>
<defs>
<clipPath id="clip0_301_20">
<rect width="16" height="11.3976" fill="white" transform="translate(12.0005 14.3)"/>
</clipPath>
</defs>
</svg>
