<svg width="40" height="40" viewBox="0 0 40 40" fill="none" xmlns="http://www.w3.org/2000/svg">
<rect x="6.66699" y="40" width="40" height="26.6667" rx="1.28" transform="rotate(-90 6.66699 40)" fill="#140064"/>
<g clip-path="url(#clip0_301_4)">
<path d="M14.4641 17.6929H13.34L11.5646 19.7593V17.6929H10.667V22.2018H11.5646V20.1294L13.3986 22.2018H14.5227L12.5273 19.947L14.4641 17.6929Z" fill="white"/>
<path d="M29.3336 22.2018L27.9856 20.6418L29.2934 19.0824H28.3254L27.1855 20.4324V17.6929H26.2886V22.2018H27.1855V20.8485L28.3471 22.2018H29.3336Z" fill="white"/>
<path d="M16.6737 18.9731C16.2963 18.9731 15.9743 19.1351 15.7096 19.359V17.6929H14.812V20.6622C14.812 21.5558 15.4034 22.3046 16.5163 22.3046C17.5166 22.3046 18.2206 21.6138 18.2206 20.6451C18.2206 19.7284 17.6154 18.9724 16.6737 18.9724V18.9731ZM16.5163 21.4926C16.0527 21.4926 15.676 21.1231 15.6635 20.6628C15.6635 20.6549 15.6635 20.647 15.6635 20.6391C15.6635 20.5417 15.68 20.4482 15.7102 20.3612C15.8255 20.0267 16.1429 19.7857 16.5169 19.7857C16.9885 19.7857 17.3704 20.1676 17.3704 20.6391C17.3704 21.1106 16.9885 21.4926 16.5169 21.4926H16.5163Z" fill="white"/>
<path d="M24.5641 18.9731C24.1315 18.9731 23.793 19.1324 23.5289 19.3689V19.0712H22.6313V22.2032H23.5289V20.4469C23.5289 20.0814 23.8253 19.785 24.1907 19.785C24.5562 19.785 24.8526 20.0814 24.8526 20.4469V22.2032H25.7554V20.1966C25.7554 20.1848 25.7554 20.1723 25.7554 20.1604C25.7554 19.5012 25.2088 18.9731 24.5635 18.9731H24.5641Z" fill="white"/>
<path d="M20.3677 18.9757C19.3562 18.9757 18.645 19.6665 18.645 20.6352C18.645 21.5519 19.2575 22.3079 20.209 22.3079C20.6371 22.3079 21.0473 22.0794 21.2798 21.7705V22.2038H22.0911V20.6359H22.0839C22.0885 20.6247 22.0911 20.6181 22.0911 20.6181C22.0911 19.7245 21.4932 18.9757 20.3684 18.9757H20.3677ZM20.3868 21.488C19.9153 21.488 19.5334 21.106 19.5334 20.6345C19.5334 20.163 19.9153 19.7811 20.3868 19.7811C20.8583 19.7811 21.2403 20.163 21.2403 20.6345C21.2403 21.106 20.8583 21.488 20.3868 21.488Z" fill="white"/>
</g>
<defs>
<clipPath id="clip0_301_4">
<rect width="18.6667" height="4.61431" fill="white" transform="translate(10.667 17.6929)"/>
</clipPath>
</defs>
</svg>
