<svg width="40" height="40" viewBox="0 0 40 40" fill="none" xmlns="http://www.w3.org/2000/svg">
<g clip-path="url(#clip0_301_5)">
<rect x="6.66699" y="40" width="40" height="26.6667" rx="1.28" transform="rotate(-90 6.66699 40)" fill="url(#paint0_linear_301_5)"/>
<g clip-path="url(#clip1_301_5)">
<path d="M14.5681 16.8741C14.2828 17.4411 14.5729 18.6181 14.9342 19.1852L19.8983 27H16.2703C15.695 27 15.1387 26.676 14.8914 26.29L12.1859 22.03C11.9339 21.6297 11.9434 21.0007 12.1859 20.6147L14.5681 16.8741Z" fill="white"/>
<path d="M16.6649 20.7243C16.5318 20.934 16.4129 21.4248 16.6126 21.8251L14.9342 19.1852C14.5728 18.6181 14.2827 17.4411 14.568 16.8741L14.8628 16.4071C15.1339 15.9782 15.6331 15.7018 16.2655 15.7018H19.8364L16.6602 20.7243H16.6649Z" fill="#DFE1E6"/>
<path d="M25.4283 23.1259C25.7136 22.5541 25.4236 21.3819 25.0622 20.8101L20.0981 13H23.7261C24.3014 13 24.8625 13.324 25.105 13.71L27.8152 17.9748C28.0672 18.3751 28.0577 19.0041 27.8152 19.3901L25.4331 23.1307L25.4283 23.1259Z" fill="white"/>
<path d="M23.3316 19.2757C23.4648 19.066 23.5836 18.5752 23.3839 18.1749L25.0624 20.8148C25.4238 21.3819 25.7138 22.5589 25.4285 23.1307L25.1337 23.5977C24.8627 24.0265 24.3634 24.3029 23.731 24.3029H20.1602L23.3364 19.2804L23.3316 19.2757Z" fill="#DFE1E6"/>
</g>
</g>
<defs>
<linearGradient id="paint0_linear_301_5" x1="6.66699" y1="66.6667" x2="47.7647" y2="41.8154" gradientUnits="userSpaceOnUse">
<stop stop-color="#213F9A"/>
<stop offset="1" stop-color="#207DCD"/>
</linearGradient>
<clipPath id="clip0_301_5">
<rect x="6.66699" y="40" width="40" height="26.6667" rx="1.28" transform="rotate(-90 6.66699 40)" fill="white"/>
</clipPath>
<clipPath id="clip1_301_5">
<rect width="16" height="14" fill="white" transform="translate(12.0005 13)"/>
</clipPath>
</defs>
</svg>
