<svg width="40" height="40" viewBox="0 0 40 40" fill="none" xmlns="http://www.w3.org/2000/svg">
<g clip-path="url(#clip0_301_24)">
<rect x="6.66699" y="40" width="40" height="26.6667" rx="1.28" transform="rotate(-90 6.66699 40)" fill="#E60012"/>
<g clip-path="url(#clip1_301_24)">
<path d="M26.642 16.7064L23.2952 13.3581C21.4828 11.5473 18.5189 11.5473 16.7065 13.3581L13.3598 16.7064C11.5474 18.5173 11.5474 21.4827 13.3598 23.2936L16.7065 26.6419C18.5189 28.4527 21.4828 28.4527 23.2952 26.6419L26.642 23.2936C28.4528 21.4827 28.4528 18.5173 26.642 16.7064ZM18.0373 24.9161H18.0161C17.7487 24.9161 17.533 24.7079 17.5208 24.4421C17.5162 24.3099 17.5618 24.1838 17.6515 24.0866C17.7411 23.9894 17.8641 23.9332 17.9963 23.9271C18.2682 23.9149 18.4992 24.1276 18.5113 24.4011C18.5219 24.6745 18.3093 24.9054 18.0373 24.9161ZM23.9834 22.85C23.3043 23.9286 22.408 24.6867 21.5846 24.8781C21.5816 24.8796 21.574 24.8811 21.5649 24.8826C21.4129 24.91 21.2656 24.9237 21.1243 24.9237C20.5941 24.9237 20.2189 24.7216 19.953 24.5454C19.6887 24.3707 19.4426 24.1382 19.2208 23.8542C17.8064 22.0372 17.7092 18.6297 17.7031 18.2469C17.6879 17.3414 17.8186 16.1124 18.5265 15.4106C18.8714 15.0672 19.3043 14.8925 19.8132 14.8925H19.8953C20.4057 14.894 20.8387 15.0672 21.1835 15.4106C21.8915 16.1124 22.0221 17.3414 22.0069 18.2469C21.9918 19.1918 21.8186 21.0224 20.8387 22.6616C20.7582 22.7953 20.6123 22.8773 20.4574 22.8773C20.3769 22.8773 20.2994 22.8561 20.2295 22.815C20.0199 22.6905 19.9515 22.417 20.0761 22.2058C20.7612 21.0589 21.0924 19.7964 21.1197 18.2317C21.1365 17.1956 20.9374 16.4163 20.5576 16.0395C20.3829 15.8648 20.1657 15.7797 19.8953 15.7797H19.8163C19.5444 15.7797 19.3271 15.8648 19.1509 16.0395C18.7726 16.4178 18.5736 17.1956 18.5903 18.2317C18.6116 19.5108 18.9169 22.0175 19.9211 23.3088C20.0837 23.5169 20.2599 23.684 20.4422 23.804C20.6184 23.921 20.8174 24.0365 21.1273 24.0365C21.2109 24.0365 21.302 24.0273 21.3962 24.0106C21.972 23.8724 22.6936 23.2313 23.2314 22.3775C23.3134 22.2469 23.4532 22.1694 23.6082 22.1694C23.6902 22.1694 23.7722 22.1922 23.8436 22.2378C23.9439 22.3 24.0138 22.3988 24.0396 22.5142C24.067 22.6297 24.0457 22.7497 23.9834 22.85Z" fill="white"/>
</g>
</g>
<defs>
<clipPath id="clip0_301_24">
<rect x="6.66699" y="40" width="40" height="26.6667" rx="1.28" transform="rotate(-90 6.66699 40)" fill="white"/>
</clipPath>
<clipPath id="clip1_301_24">
<rect width="16" height="16" fill="white" transform="translate(12.0005 12)"/>
</clipPath>
</defs>
</svg>
