<svg width="40" height="40" viewBox="0 0 40 40" fill="none" xmlns="http://www.w3.org/2000/svg">
<rect x="7.3335" y="40" width="40" height="26.6667" rx="1.28" transform="rotate(-90 7.3335 40)" fill="black"/>
<g clip-path="url(#clip0_301_14)">
<path d="M23.1909 24.5344H18.1436V15.4635H23.191V24.5344H23.1909Z" fill="#FF5F00"/>
<path d="M18.4633 19.9989C18.4633 18.1588 19.3248 16.5197 20.6664 15.4634C19.6509 14.6627 18.3949 14.2281 17.1016 14.23C13.9159 14.23 11.3335 16.8128 11.3335 19.9989C11.3335 23.1849 13.9159 25.7677 17.1016 25.7677C18.3949 25.7697 19.651 25.3351 20.6665 24.5343C19.325 23.4782 18.4633 21.839 18.4633 19.9989Z" fill="#EB001B"/>
<path d="M30 19.9989C30 23.1849 27.4176 25.7677 24.2319 25.7677C22.9384 25.7696 21.6822 25.335 20.6665 24.5343C22.0085 23.478 22.87 21.839 22.87 19.9989C22.87 18.1587 22.0085 16.5197 20.6665 15.4634C21.6822 14.6627 22.9384 14.2281 24.2318 14.23C27.4175 14.23 29.9999 16.8128 29.9999 19.9989" fill="#F79E1B"/>
</g>
<defs>
<clipPath id="clip0_301_14">
<rect width="18.6667" height="11.5377" fill="white" transform="translate(11.3335 14.23)"/>
</clipPath>
</defs>
</svg>
