<svg width="40" height="40" viewBox="0 0 40 40" fill="none" xmlns="http://www.w3.org/2000/svg">
<g clip-path="url(#clip0_301_7)">
<rect x="6.66699" y="40" width="40" height="26.6667" rx="1.28" transform="rotate(-90 6.66699 40)" fill="url(#paint0_linear_301_7)"/>
<mask id="mask0_301_7" style="mask-type:luminance" maskUnits="userSpaceOnUse" x="12" y="16" width="8" height="11">
<path d="M12 21.4424C12 24.0626 14.1255 26.1916 16.7492 26.1916C17.5889 26.1916 18.3764 25.972 19.0628 25.5922V22.526C18.6621 23.0521 18.028 23.3936 17.3172 23.3936C16.1046 23.3936 15.122 22.411 15.122 21.1984C15.122 20.627 15.345 20.1009 15.7039 19.7106C15.3241 19.0137 15.1115 18.2193 15.1115 17.3726C15.1115 17.2437 15.1185 17.1113 15.1255 16.9858C13.3032 17.6479 12 19.397 12 21.4493" fill="white"/>
</mask>
<g mask="url(#mask0_301_7)">
<path d="M18.8495 15.7708L10.4253 17.2562L12.2138 27.3996L20.638 25.9142L18.8495 15.7708Z" fill="white"/>
</g>
<mask id="mask1_301_7" style="mask-type:luminance" maskUnits="userSpaceOnUse" x="15" y="12" width="10" height="8">
<path d="M15.1089 17.3653C15.1089 18.212 15.3249 19.0064 15.7012 19.7033C16.1019 19.2677 16.6769 18.996 17.3145 18.996C17.5619 18.996 17.7988 19.0378 18.0218 19.1144C17.7744 18.7416 17.6316 18.2921 17.6316 17.8113C17.6316 16.5046 18.6908 15.4454 19.9975 15.4454C20.9522 15.4454 21.7745 16.0098 22.1473 16.8217C22.4992 16.7381 22.8686 16.6928 23.2484 16.6928C23.8198 16.6928 24.3669 16.7938 24.8721 16.9785C24.6735 14.4593 22.5654 12.4767 19.9975 12.4767C17.2971 12.4767 15.1089 14.6684 15.1089 17.3653Z" fill="white"/>
</mask>
<g mask="url(#mask1_301_7)">
<path d="M23.7319 9.33783L12.7861 13.3218L16.2517 22.8433L27.1975 18.8593L23.7319 9.33783Z" fill="white"/>
</g>
<mask id="mask2_301_7" style="mask-type:luminance" maskUnits="userSpaceOnUse" x="20" y="16" width="9" height="11">
<path d="M22.1506 16.822C22.2899 17.1251 22.3666 17.4596 22.3666 17.8115C22.3666 18.2924 22.2237 18.7419 21.9763 19.1147C22.1993 19.0415 22.4363 18.9997 22.6837 18.9997C23.8962 18.9997 24.8788 19.9823 24.8788 21.1949C24.8788 22.4074 23.8962 23.39 22.6837 23.39C21.9728 23.39 21.3387 23.052 20.938 22.5259V25.5922C21.6244 25.9719 22.4119 26.1915 23.2516 26.1915C25.8753 26.1915 28.0008 24.066 28.0008 21.4423C28.0008 18.8185 25.8753 16.6931 23.2516 16.6931C22.8718 16.6931 22.506 16.7384 22.1506 16.822Z" fill="white"/>
</mask>
<g mask="url(#mask2_301_7)">
<path d="M21.1485 15.4874L19.3115 25.9052L27.7837 27.3991L29.6207 16.9812L21.1485 15.4874Z" fill="white"/>
</g>
</g>
<defs>
<linearGradient id="paint0_linear_301_7" x1="6.66699" y1="66.6667" x2="47.7647" y2="41.8154" gradientUnits="userSpaceOnUse">
<stop stop-color="#0078D3"/>
<stop offset="1" stop-color="#54C3F1"/>
</linearGradient>
<clipPath id="clip0_301_7">
<rect x="6.66699" y="40" width="40" height="26.6667" rx="1.28" transform="rotate(-90 6.66699 40)" fill="white"/>
</clipPath>
</defs>
</svg>
