<svg width="40" height="40" viewBox="0 0 40 40" fill="none" xmlns="http://www.w3.org/2000/svg">
<g clip-path="url(#clip0_1297_19)">
<rect x="6.66675" y="40" width="40" height="26.6667" rx="1.28" transform="rotate(-90 6.66675 40)" fill="#00DE5A"/>
<path d="M28 20C28 21.5823 27.5309 23.129 26.6518 24.4446C25.7727 25.7602 24.5233 26.7856 23.0615 27.3911C21.5997 27.9966 19.9912 28.155 18.4393 27.8463C16.8875 27.5376 15.462 26.7757 14.3432 25.6569C13.2243 24.5381 12.4624 23.1126 12.1537 21.5608C11.845 20.0089 12.0035 18.4004 12.609 16.9385C13.2145 15.4767 14.2399 14.2273 15.5555 13.3482C16.8711 12.4692 18.4178 12 20 12C22.1218 12 24.1566 12.8429 25.6569 14.3432C27.1572 15.8435 28 17.8783 28 20ZM21.672 15.88V20.532L18.406 15.88H15.88V24.12H18.33V19.466L21.596 24.12H24.12V15.88H21.672Z" fill="black"/>
</g>
<defs>
<clipPath id="clip0_1297_19">
<rect x="6.66675" y="40" width="40" height="26.6667" rx="1.28" transform="rotate(-90 6.66675 40)" fill="white"/>
</clipPath>
</defs>
</svg>
