<svg width="40" height="40" viewBox="0 0 40 40" fill="none" xmlns="http://www.w3.org/2000/svg">
<rect x="6.66699" y="40" width="40" height="26.6667" rx="1.28" transform="rotate(-90 6.66699 40)" fill="#0066B3"/>
<g clip-path="url(#clip0_301_17)">
<path d="M27.5505 16.61H26.5049V19.3136H22.2237V16.61H21.1782C20.9312 16.61 20.728 16.8485 20.728 17.1434V22.8582C20.728 23.1517 20.9284 23.3915 21.1782 23.3915H22.2237V20.489H26.5049V23.3915H27.5505C27.8003 23.3915 28.0006 23.1502 28.0006 22.8582V17.1434C28.0006 16.8499 27.8017 16.61 27.5505 16.61Z" fill="white"/>
<path d="M18.981 16.61H17.9326V21.8013L14.7859 17.6542C14.2624 17.0502 13.9026 16.61 13.0658 16.61H12.0005V22.8567C12.0005 23.1502 12.2009 23.3901 12.452 23.3901H13.4976V18.1748L16.6655 22.2937C17.2002 22.9132 17.6772 23.3915 18.4519 23.3915H19.4297V17.1434C19.4297 16.8499 19.2293 16.61 18.981 16.61Z" fill="white"/>
</g>
<defs>
<clipPath id="clip0_301_17">
<rect width="16" height="6.78014" fill="white" transform="translate(12.0005 16.61)"/>
</clipPath>
</defs>
</svg>
