<svg width="40" height="40" viewBox="0 0 40 40" fill="none" xmlns="http://www.w3.org/2000/svg">
<rect x="6.66675" y="40" width="40" height="26.6667" rx="1.28" transform="rotate(-90 6.66675 40)" fill="#EE2722"/>
<g clip-path="url(#clip0_301_2)">
<path d="M10.7552 19.9684C10.7218 19.9855 10.7201 20.0166 10.7514 20.0373L13.6122 21.9269L14.4319 18.0707L10.7552 19.9684Z" fill="white"/>
<path d="M27.6934 18.07H26.9701C26.9325 18.07 26.8744 18.0841 26.8409 18.1013L23.2154 19.9695C23.1819 19.9867 23.1805 20.0176 23.2115 20.0383C23.2115 20.0383 23.2115 20.0383 23.2115 20.0385L26.0246 21.8898C26.0561 21.9103 26.1124 21.9274 26.1503 21.9274H26.8731C26.9106 21.9274 26.9157 21.9106 26.8848 21.89L24.0138 20.0009L27.7008 18.1013C27.7344 18.0841 27.7309 18.07 27.6934 18.07Z" fill="white"/>
<path d="M26.144 18.0699H21.1046L20.2856 21.9274H25.3242C25.3617 21.9274 25.3666 21.9106 25.3356 21.8898L22.4695 20.0009L26.1516 18.1013C26.185 18.0841 26.1815 18.0699 26.144 18.0699Z" fill="white"/>
<path d="M29.2404 18.07H28.5173C28.4795 18.07 28.4215 18.0841 28.3881 18.1013L24.7623 19.9695C24.7291 19.9867 24.7275 20.0176 24.7586 20.0383C24.7588 20.0383 24.7588 20.0383 24.7588 20.0385L27.5716 21.8898C27.603 21.9103 27.6595 21.9274 27.697 21.9274H28.4203C28.4577 21.9274 28.4628 21.9106 28.4316 21.89L25.5607 20.0009L29.248 18.1013C29.2814 18.0841 29.2781 18.07 29.2404 18.07Z" fill="white"/>
<path d="M25.9208 15.5463H14.0562C13.3939 15.5463 12.9305 15.963 12.8211 16.478C12.7612 16.7606 12.8686 17.0121 13.0863 17.1845L17.3493 19.9987L17.3525 19.9971L17.3531 19.9987L25.9284 15.5777C25.9617 15.5605 25.9584 15.5463 25.9208 15.5463Z" fill="white"/>
<path d="M24.0391 24.414C24.0391 24.414 24.0391 24.414 24.039 24.414L17.3533 19.9987L17.3521 20.0003L17.3495 19.9987L11.8898 22.8138C11.5993 22.9852 11.3851 23.237 11.325 23.5203C11.2149 24.0342 11.5007 24.4517 12.1634 24.4517H24.0277C24.0654 24.4517 24.0703 24.4347 24.0391 24.414Z" fill="white"/>
</g>
<defs>
<clipPath id="clip0_301_2">
<rect width="18.6667" height="9.82456" fill="white" transform="translate(10.6667 15.0867)"/>
</clipPath>
</defs>
</svg>
