<svg width="40" height="40" viewBox="0 0 40 40" fill="none" xmlns="http://www.w3.org/2000/svg">
<rect x="6.66699" y="40" width="40" height="26.6667" rx="1.28" transform="rotate(-90 6.66699 40)" fill="#1428A0"/>
<g clip-path="url(#clip0_301_6)">
<path d="M11.3763 19.4397C11.3633 19.3859 11.3664 19.329 11.3736 19.2995C11.3917 19.2145 11.4496 19.1196 11.6179 19.1196C11.7741 19.1196 11.866 19.2166 11.866 19.3619V19.527H12.5317V19.3396C12.5314 18.7591 12.0082 18.6666 11.6309 18.6666C11.1567 18.6666 10.7694 18.8239 10.6985 19.2598C10.679 19.3794 10.6759 19.4846 10.704 19.6196C10.8195 20.1651 11.768 20.323 11.906 20.6681C11.9317 20.7322 11.9242 20.8148 11.9112 20.8651C11.8893 20.9549 11.8289 21.0454 11.6504 21.0454C11.4835 21.0454 11.3838 20.9484 11.3838 20.8024L11.3828 20.5458H10.667V20.7496C10.667 21.3462 11.1354 21.5258 11.6371 21.5258C12.1387 21.5258 12.5153 21.3613 12.5797 20.9148C12.6119 20.6845 12.5876 20.5348 12.577 20.4779C12.4642 19.918 11.4524 19.7518 11.3763 19.4397ZM20.0548 19.4462C20.0428 19.3934 20.0462 19.3376 20.0524 19.3081C20.0716 19.2228 20.1288 19.1296 20.2943 19.1296C20.4485 19.1296 20.5386 19.2255 20.5386 19.3698V19.5329H21.1965V19.3468C21.1965 18.7718 20.6812 18.6814 20.3077 18.6814C19.8376 18.6814 19.4538 18.8362 19.3835 19.269C19.365 19.3869 19.3602 19.4914 19.3901 19.6247C19.5045 20.164 20.4434 20.3206 20.5798 20.6619C20.6037 20.7267 20.5969 20.8089 20.5846 20.8576C20.564 20.9463 20.5044 21.0358 20.3272 21.0358C20.161 21.0358 20.0613 20.9402 20.0613 20.7962V20.5403H19.353V20.7438C19.353 21.3335 19.8149 21.5117 20.3128 21.5117C20.8107 21.5117 21.1832 21.349 21.2462 20.9073C21.2764 20.6791 21.2538 20.5307 21.2414 20.4745C21.1311 19.9211 20.1302 19.7549 20.0545 19.4458L20.0548 19.4462ZM26.1144 20.9001L25.4859 18.7516H24.4957V21.3925H25.1508L25.1128 19.1751L25.7878 21.3925H26.7377V18.7516H26.0784L26.1147 20.9001H26.1144ZM13.5241 18.7516L13.0296 21.4202H13.7506L14.123 18.95L14.4866 21.4202H15.2024L14.71 18.7516H13.5237H13.5241ZM17.5548 18.7516L17.2179 20.8377L16.8814 18.7516H15.7928L15.7353 21.4202H16.4021L16.4202 18.95L16.879 21.4202H17.5558L18.015 18.95L18.0331 21.4202H18.7016L18.642 18.7516H17.5548ZM23.7559 18.7516H23.0808V20.7257C23.0819 20.7599 23.0808 20.7986 23.075 20.8271C23.061 20.8932 23.0048 21.021 22.8187 21.021C22.6326 21.021 22.5771 20.8936 22.5641 20.8271C22.5572 20.7986 22.5566 20.7599 22.5572 20.7257V18.7516H21.8825V20.6643C21.8819 20.7137 21.8856 20.8144 21.8884 20.8408C21.935 21.3394 22.3277 21.5011 22.8183 21.5011C23.309 21.5011 23.7024 21.3394 23.75 20.8408C23.7538 20.8144 23.7586 20.7137 23.7559 20.6643V18.7516ZM28.3896 19.9221V20.3114H28.6631V20.6976C28.6638 20.7322 28.662 20.7692 28.6562 20.799C28.6453 20.8709 28.5771 20.9936 28.3828 20.9936C28.1885 20.9936 28.1227 20.8709 28.1111 20.799C28.1063 20.7692 28.1042 20.7318 28.1042 20.6976V19.478C28.1042 19.4349 28.1073 19.3876 28.1162 19.3519C28.1296 19.2868 28.1871 19.1587 28.3814 19.1587C28.5856 19.1587 28.6363 19.2937 28.648 19.3519C28.6555 19.3903 28.6562 19.4547 28.6562 19.4547V19.6028H29.3282V19.5154C29.3282 19.5154 29.3313 19.4239 29.323 19.3389C29.2727 18.8383 28.8601 18.68 28.3872 18.68C27.9144 18.68 27.5093 18.8397 27.4504 19.3389C27.4449 19.3845 27.437 19.4667 27.437 19.5154V20.6373C27.437 20.6863 27.4388 20.7239 27.4477 20.8134C27.4915 21.3003 27.9133 21.4727 28.3852 21.4727C28.857 21.4727 29.2788 21.3 29.3237 20.8134C29.3316 20.7239 29.3326 20.6863 29.3337 20.6373V19.9221H28.3896Z" fill="white"/>
</g>
<defs>
<clipPath id="clip0_301_6">
<rect width="18.6667" height="2.85914" fill="white" transform="translate(10.667 18.6666)"/>
</clipPath>
</defs>
</svg>
