<svg width="40" height="40" viewBox="0 0 40 40" fill="none" xmlns="http://www.w3.org/2000/svg">
<g clip-path="url(#clip0_301_9)">
<rect x="6.66699" y="40" width="40" height="26.6667" rx="1.28" transform="rotate(-90 6.66699 40)" fill="#0056A7"/>
<g clip-path="url(#clip1_301_9)">
<path d="M26.4704 21.2453C25.7628 23.0054 24.5776 23.5007 24.5776 23.5007C28.0712 19.9628 25.9397 15.8943 25.9397 15.8943C25.4709 15.0629 25.9751 14.6649 26.0635 14.5941C24.5776 14.9656 25.0464 16.195 25.0464 16.195C25.7982 17.9904 25.6478 19.441 25.3913 20.3431L24.9049 20.0689H24.9137C24.9137 20.0689 26.0812 15.452 21.3051 13.8335V12.9667H20.2968V18.6803L24.9756 21.3426C24.896 21.5195 24.8076 21.6787 24.7103 21.8379L20.0049 19.1137L15.2907 21.8379C15.1934 21.6787 15.105 21.5195 15.0165 21.3426L19.6953 18.6803V12.9667H18.6871V13.8335C13.9198 15.452 15.0873 20.0601 15.0873 20.0601H15.0961L14.6008 20.3431C14.3443 19.441 14.194 17.9904 14.9458 16.195C14.9458 16.195 15.4145 14.9656 13.9375 14.5941C14.0259 14.6649 14.5301 15.0629 14.0613 15.8943C14.0613 15.8943 11.9297 19.9628 15.4145 23.5007C15.4145 23.5007 14.2293 23.0054 13.5218 21.2453C13.5218 21.2453 13.1238 20.3873 12.0005 20.5731L12.6727 21.546C12.6727 21.546 13.681 24.7655 17.5903 25.2519V27.0297H19.5096V24.4117C19.5096 24.4117 17.4753 24.394 15.9187 22.687L16.4051 22.4039C16.4936 22.4835 17.9706 23.8545 19.9872 23.8898H20.0138C21.0132 23.8721 21.8888 23.5184 22.5256 23.1646C23.1536 22.8108 23.5516 22.4393 23.5958 22.4039L24.0735 22.687C22.5256 24.394 20.4825 24.4117 20.4825 24.4117V27.0297H22.4018V25.2519C26.3112 24.7655 27.3283 21.546 27.3283 21.546C27.5759 20.7677 28.0005 20.5731 28.0005 20.5731C26.8772 20.3873 26.4704 21.2453 26.4704 21.2453ZM23.9762 19.5383H23.9673L21.3316 18.07L21.3139 14.9125H21.3316C21.3316 14.9125 24.5157 15.7704 23.9762 19.5383ZM18.6694 14.9125H18.6871L18.6694 18.07L16.0248 19.5471C15.4853 15.7704 18.6694 14.9125 18.6694 14.9125ZM19.9961 22.8285C19.2177 22.8285 18.3244 22.5808 17.378 21.8379L20.0049 20.3077L22.6141 21.8379C21.6766 22.5808 20.7744 22.8285 19.9961 22.8285Z" fill="white"/>
</g>
</g>
<defs>
<clipPath id="clip0_301_9">
<rect x="6.66699" y="40" width="40" height="26.6667" rx="1.28" transform="rotate(-90 6.66699 40)" fill="white"/>
</clipPath>
<clipPath id="clip1_301_9">
<rect width="16" height="14.063" fill="white" transform="translate(12.0005 12.9667)"/>
</clipPath>
</defs>
</svg>
