<svg width="40" height="40" viewBox="0 0 40 40" fill="none" xmlns="http://www.w3.org/2000/svg">
<g clip-path="url(#clip0_301_8)">
<rect x="6.66699" y="40" width="40" height="26.6667" rx="1.28" transform="rotate(-90 6.66699 40)" fill="#2B53BC"/>
<g clip-path="url(#clip1_301_8)">
<path d="M27.9909 19.6437C27.9973 19.7609 28.0005 19.878 28.0005 19.9936V20C28.0005 23.7007 25.4873 26.8156 22.0739 27.7288C21.5251 27.8748 20.9521 27.9647 20.36 27.992C20.185 28 20.0117 28.0016 19.84 27.9984C15.7927 27.9198 12.4803 24.8337 12.0486 20.8794C12.031 20.7093 12.0181 20.5376 12.0101 20.3643C12.0053 20.2471 12.0005 20.1316 12.0005 20.016V20C12.0005 15.5819 15.5824 12 20.0005 12C23.7686 12 26.9285 14.6046 27.7758 18.1111C27.8946 18.6054 27.9684 19.1174 27.9909 19.6437ZM24.2228 15.9848C23.7542 15.8548 23.4091 15.744 23.3064 15.529C23.2583 15.4279 23.2871 15.3252 23.3546 15.277C23.4268 15.2241 23.5247 15.2417 23.637 15.2979C23.8039 15.3797 24.0093 15.5001 24.1666 15.5194C24.6256 15.5755 24.5421 14.8726 23.7172 14.4666C23.2326 14.2259 22.7576 14.1264 22.1156 14.1505C21.8781 14.1601 21.6534 14.1505 21.4545 14.12C21.1544 14.0734 20.7852 13.9466 20.5381 13.8953C20.3487 13.8552 20.2396 13.86 20.1947 13.9242C20.1529 13.9836 20.1658 14.0718 20.2813 14.2179C20.514 14.5099 20.8783 14.8357 20.6922 15.5964C20.23 17.4837 20.8639 18.347 21.509 18.4883C21.8701 18.5685 22.2039 18.4835 22.4077 18.2732C22.6019 18.071 22.6837 17.7292 22.4976 17.4387C22.2119 16.9942 22.1124 16.609 22.366 16.4485C22.5987 16.3009 22.9293 16.4373 23.1812 16.999C23.584 17.9009 24.1072 18.14 24.6304 17.4981C25.0589 16.9733 25.0428 16.2126 24.2212 15.9864L24.2228 15.9848ZM22.7656 20.9099C20.5959 19.61 19.5206 19.0949 18.6412 18.469C17.1856 17.4307 16.9562 16.6588 16.9112 16.1212C16.831 15.1583 17.5596 14.2917 18.3026 13.8841C18.3604 13.8487 18.4583 13.7685 18.4149 13.6594C18.3716 13.5486 18.2384 13.5695 18.1887 13.5807C16.5309 13.9322 14.918 15.3926 15.1684 17.3424C15.2679 18.1143 15.759 19.4191 18.3026 20.9163C19.1708 21.4267 19.9186 21.8134 21.095 22.4875C22.6869 23.3974 23.4203 24.5705 22.4334 25.8496C22.358 25.9394 22.2938 26.0325 22.321 26.1127C22.3515 26.2058 22.4751 26.2219 22.5891 26.1705C23.3465 25.8223 23.9708 25.2991 24.2693 24.8128C24.7941 23.9591 25.054 22.2837 22.7624 20.9083L22.7656 20.9099ZM20.2284 26.1015C20.0358 26.0469 19.7437 25.9555 19.5014 25.8496C19.1949 25.7164 18.9172 25.5687 18.7953 25.4467C18.715 25.3665 18.7022 25.275 18.7664 25.1819C19.1339 24.6556 19.2366 24.4469 19.3393 24.1982C19.5576 23.6734 19.3425 23.6221 19.0039 23.72C18.6364 23.8243 18.3459 23.9318 18.1213 24.0169C17.8051 24.134 17.6109 24.2062 17.4954 24.1501C17.375 24.0923 17.3541 23.8837 17.3108 23.5386C17.2803 23.2931 17.229 23.0138 17.1632 22.741C17.0268 22.1938 16.7925 22.2997 16.5999 22.5228C16.3592 22.8148 16.226 23.1775 16.1265 23.3669C16.0735 23.468 16.0109 23.5017 15.9371 23.4857C15.7702 23.4504 15.5503 23.192 15.3096 22.8839C14.9582 22.4345 14.8009 22.0895 14.6179 22.0686C14.2296 22.0237 14.4013 22.9432 14.7672 23.7007C15.1235 24.4421 15.6755 25.1723 16.5999 25.7565C17.6542 26.4241 19.2125 26.6664 20.1706 26.5316C20.4723 26.4883 20.5333 26.1866 20.2316 26.0999L20.2284 26.1015Z" fill="white"/>
</g>
</g>
<defs>
<clipPath id="clip0_301_8">
<rect x="6.66699" y="40" width="40" height="26.6667" rx="1.28" transform="rotate(-90 6.66699 40)" fill="white"/>
</clipPath>
<clipPath id="clip1_301_8">
<rect width="16" height="16.0016" fill="white" transform="translate(12.0005 12)"/>
</clipPath>
</defs>
</svg>
