<svg width="40" height="40" viewBox="0 0 40 40" fill="none" xmlns="http://www.w3.org/2000/svg">
<rect width="40" height="26.6667" rx="1.28" transform="matrix(0 -1 -1 0 33.333 40)" fill="#0066AD"/>
<g clip-path="url(#clip0_301_18)">
<path d="M16.592 18.9714C15.8352 18.5045 15.1211 18.0998 14.3127 17.9595C13.832 17.8758 13.3192 17.8608 12.8374 17.9307C12.314 18.0067 12.0351 18.4619 12.0051 18.9963C11.9491 20.0104 12.2885 20.9408 12.5906 21.8783C12.8285 22.6157 13.0941 23.3437 13.3441 24.0772C13.5016 24.5407 13.7927 25.0109 13.2393 25.4533C13.2598 25.4711 13.2804 25.4894 13.3009 25.5071C13.5071 25.5071 13.7134 25.5115 13.9191 25.506C14.2506 25.4971 14.5872 25.5154 14.9121 25.4622C15.5608 25.3563 15.7714 24.9931 15.5425 24.3306C15.2802 23.5732 14.9442 22.8414 14.652 22.094C14.4064 21.4664 14.1791 20.8299 14.1713 20.144C14.1652 19.5962 14.412 19.4133 14.9498 19.5497C15.4748 19.6827 15.9128 19.9788 16.2987 20.3392C17.4691 21.4303 18.2681 22.7676 18.8342 24.2535C18.8902 24.3999 18.9927 24.5546 18.9789 24.696C18.9528 24.9527 18.8558 25.2027 18.7881 25.4556C18.7638 25.45 18.7388 25.445 18.7144 25.4395C18.7238 25.4544 18.7333 25.4822 18.7421 25.4822C19.2838 25.475 19.8316 25.5104 20.3666 25.4439C20.9028 25.3774 21.0863 25.0641 21.0225 24.4997C21.6091 24.9904 22.2528 25.3319 22.9952 25.4733C25.0023 25.8553 26.6617 25.3031 27.9042 23.6436C27.9746 23.5499 28.0262 23.3709 27.9846 23.2761C27.6198 22.4383 27.2323 21.6105 26.8497 20.7811C26.8325 20.7439 26.7976 20.7145 26.7488 20.6541C26.6922 21.0605 26.6651 21.4331 26.5852 21.7946C26.2842 23.1557 25.3682 23.9259 23.9838 24.08C22.504 24.2452 21.3984 23.5976 20.4587 22.5508C19.8627 21.8866 19.5233 21.0744 19.1713 20.2704C18.583 18.9259 17.9903 17.5836 17.4004 16.2402C17.1709 15.7174 16.8764 15.1979 17.3643 14.5891C16.7223 14.5891 16.154 14.5874 15.5863 14.5913C15.5236 14.5913 15.4604 14.6179 15.3989 14.6362C15.0845 14.7288 14.9398 14.9528 15.0246 15.2661C15.0823 15.4784 15.1749 15.6825 15.2619 15.8854C15.6944 16.8939 16.1302 17.9008 16.5926 18.973L16.592 18.9714Z" fill="white"/>
<path d="M22.5217 23.6606C22.4558 23.5763 22.3903 23.4915 22.3232 23.4078C21.6951 22.6193 21.71 21.7505 22.438 21.0486C22.9265 20.5779 23.4798 20.1704 24.0254 19.7634C24.811 19.1779 25.2568 18.4161 25.2529 17.4348C25.249 16.5266 24.7733 15.8419 24.0825 15.3041C23.3168 14.7069 22.438 14.4253 21.4628 14.412C20.6172 14.4003 19.7856 14.453 18.9866 14.7557C18.2437 15.0374 18.2298 15.0696 18.578 15.7626C18.7172 16.0393 18.8602 16.3143 19.0332 16.6514C19.0914 16.5017 19.1069 16.4113 19.1557 16.3453C19.2955 16.1557 19.4124 15.9184 19.6021 15.802C20.5246 15.2348 21.9817 15.3629 22.7119 16.2533C23.1654 16.8061 23.1754 17.3344 22.6592 17.8268C22.2539 18.2132 21.7877 18.5359 21.3524 18.8919C20.6566 19.4607 20.2574 20.1798 20.274 21.0946C20.284 21.664 20.5219 22.1436 20.9022 22.56C21.3497 23.0496 21.8869 23.4111 22.4674 23.7138C22.4857 23.6961 22.504 23.6783 22.5217 23.6606Z" fill="white"/>
</g>
<defs>
<clipPath id="clip0_301_18">
<rect width="16" height="11.1786" fill="white" transform="matrix(-1 0 0 1 27.9995 14.41)"/>
</clipPath>
</defs>
</svg>
