<svg width="40" height="40" viewBox="0 0 40 40" fill="none" xmlns="http://www.w3.org/2000/svg">
<g clip-path="url(#clip0_301_19)">
<path fill-rule="evenodd" clip-rule="evenodd" d="M33.3337 1.28C33.3337 0.573074 32.7606 0 32.0537 0H7.94699C7.24007 0 6.66699 0.573071 6.66699 1.27999L6.66699 38.72C6.66699 39.4269 7.24007 40 7.94699 40H11.4633C11.539 40 11.6133 39.9785 11.6773 39.9379L12.906 39.1597C13.3774 38.8612 13.9916 38.8612 14.4631 39.1597L15.6918 39.9379C15.7558 39.9785 15.83 40 15.9058 40H32.0537C32.7606 40 33.3337 39.4269 33.3337 38.72V1.28Z" fill="#0064FF"/>
<g clip-path="url(#clip1_301_19)">
<path d="M20.877 15.9676L21.5439 12.9271C21.5738 12.7744 21.4389 12.6361 21.2817 12.6725C20.315 12.8399 19.311 13.1307 18.3146 13.5455C13.8338 15.3858 11.1214 18.9937 12.2603 21.6051C13.1219 23.5618 15.9018 24.3983 19.1311 23.9109L18.4642 26.9514C18.4342 27.1041 18.5691 27.2424 18.7264 27.206C19.693 27.0386 20.697 26.7478 21.6934 26.333C26.1741 24.4927 28.879 20.8848 27.7401 18.2661C26.886 16.3167 24.1061 15.4802 20.8767 15.9674L20.877 15.9676Z" fill="white"/>
</g>
</g>
<defs>
<clipPath id="clip0_301_19">
<rect x="6.66699" y="40" width="40" height="26.6667" rx="1.28" transform="rotate(-90 6.66699 40)" fill="white"/>
</clipPath>
<clipPath id="clip1_301_19">
<rect width="16" height="14.5455" fill="white" transform="translate(12.0005 12.6666)"/>
</clipPath>
</defs>
</svg>
