<svg width="40" height="40" viewBox="0 0 40 40" fill="none" xmlns="http://www.w3.org/2000/svg">
<rect x="7.3335" y="40" width="40" height="26.6667" rx="1.28" transform="rotate(-90 7.3335 40)" fill="#1A1F71"/>
<g clip-path="url(#clip0_301_15)">
<path fill-rule="evenodd" clip-rule="evenodd" d="M20.9874 18.9139C20.9766 19.7534 21.7358 20.2223 22.3075 20.5005C22.8952 20.7866 23.0922 20.9698 23.09 21.2252C23.0857 21.6162 22.6212 21.789 22.187 21.796C21.4291 21.8076 20.9883 21.5916 20.6383 21.4278L20.3652 22.7051C20.7165 22.8671 21.3673 23.0084 22.0422 23.0145C23.6263 23.0145 24.6624 22.2324 24.6681 21.0203C24.6741 19.4816 22.5395 19.3965 22.5542 18.7086C22.5594 18.4999 22.7582 18.2774 23.1942 18.2208C23.4098 18.1923 24.0057 18.1702 24.6815 18.4813L24.9468 17.2455C24.5834 17.1133 24.1167 16.9867 23.5355 16.9867C22.0444 16.9867 20.9957 17.7792 20.9874 18.9139ZM27.4944 17.093C27.2053 17.093 26.9612 17.2619 26.8528 17.5208L24.5899 22.9237H26.1726L26.4876 22.0531H28.4221L28.6049 22.9237H30.0002L28.7825 17.093H27.4944ZM27.7157 18.668L28.1724 20.8574H26.9215L27.7157 18.668ZM19.0681 17.093L17.8202 22.9237H19.3286L20.5761 17.093H19.0685H19.0681ZM16.8367 17.093L15.2665 21.0614L14.6313 17.6871C14.557 17.3103 14.2623 17.093 13.9356 17.093H11.3694L11.3335 17.2624C11.8602 17.3769 12.4591 17.561 12.8216 17.7584C13.0437 17.879 13.1068 17.9844 13.1799 18.2709L14.3828 22.9237H15.9768L18.4208 17.093H16.8367Z" fill="white"/>
</g>
<defs>
<clipPath id="clip0_301_15">
<rect width="18.6667" height="6.02778" fill="white" transform="translate(11.3335 16.9867)"/>
</clipPath>
</defs>
</svg>
