<svg width="40" height="40" viewBox="0 0 40 40" fill="none" xmlns="http://www.w3.org/2000/svg">
<g clip-path="url(#clip0_301_11)">
<rect x="6.66699" y="40" width="40" height="26.6667" rx="1.28" transform="rotate(-90 6.66699 40)" fill="#0083CA"/>
<g clip-path="url(#clip1_301_11)">
<g clip-path="url(#clip2_301_11)">
<path d="M19.9329 27.5408C24.0923 27.5408 27.4669 24.1662 27.4669 20C27.4669 15.8338 24.0911 12.4592 19.9306 12.4592C15.7701 12.4592 12.3921 15.8361 12.3921 20C12.3921 24.164 15.7656 27.5408 19.9329 27.5408Z" fill="white"/>
<mask id="mask0_301_11" style="mask-type:luminance" maskUnits="userSpaceOnUse" x="12" y="12" width="16" height="16">
<path d="M19.9329 27.5409C24.0923 27.5409 27.4669 24.1663 27.4669 20.0035C27.4669 15.8407 24.0911 12.4661 19.9306 12.4661C15.7701 12.4661 12.3921 15.8384 12.3921 20.0035C12.3921 24.1685 15.7656 27.5409 19.9329 27.5409Z" fill="white"/>
</mask>
<g mask="url(#mask0_301_11)">
<path d="M19.9993 23.638C23.3161 23.638 26.1529 24.5643 27.3736 25.8745C27.7756 24.9425 28.001 23.9041 28.001 22.8249C28.001 18.4968 24.4169 14.9953 19.9993 14.9953C15.5817 14.9953 12.001 18.4979 12.001 22.8283C12.001 23.9075 12.2275 24.9402 12.6295 25.8745C13.8468 24.5643 16.6881 23.638 19.9993 23.638Z" fill="white"/>
<path d="M19.9979 23.6469C23.3069 23.6469 26.1357 24.5653 27.3542 25.8654C27.7562 24.9402 27.9804 23.9108 27.9804 22.8407C27.9804 18.5476 24.4053 15.0632 19.9991 15.0632C15.5928 15.0632 12.02 18.5476 12.02 22.8429C12.02 23.9142 12.2454 24.939 12.6474 25.8654C13.8625 24.5653 16.6958 23.6469 19.9979 23.6469Z" fill="#FBFDFE"/>
<path d="M19.9971 23.6549C23.297 23.6549 26.119 24.5653 27.3341 25.8552C27.7349 24.9379 27.958 23.9176 27.958 22.8542C27.958 18.5952 24.392 15.1288 19.9971 15.1288C15.6022 15.1288 12.0396 18.5975 12.0396 22.8576C12.0396 23.9198 12.2649 24.9368 12.6658 25.8552C13.8775 24.5653 16.7029 23.6549 19.9971 23.6549Z" fill="#F8FCFE"/>
<path d="M19.9957 23.6639C23.2877 23.6639 26.1018 24.5676 27.3135 25.8461C27.7132 24.9367 27.9363 23.9244 27.9363 22.8701C27.9363 18.6461 24.3794 15.1968 19.9957 15.1968C15.6121 15.1968 12.0586 18.6473 12.0586 22.8723C12.0586 23.9266 12.2828 24.9345 12.6837 25.8461C13.892 24.5676 16.7106 23.6639 19.9957 23.6639Z" fill="#F4FAFD"/>
<path d="M19.9949 23.6718C23.2778 23.6718 26.0862 24.5676 27.2934 25.8359C27.6931 24.9333 27.9151 23.93 27.9151 22.8837C27.9151 18.6948 24.3672 15.2625 19.9949 15.2625C15.6226 15.2625 12.0781 18.6971 12.0781 22.8871C12.0781 23.9323 12.3023 24.9333 12.701 25.8359C13.9059 24.5676 16.7177 23.6718 19.9938 23.6718H19.9949Z" fill="#F1F8FC"/>
<path d="M19.9939 23.6809C23.2689 23.6809 26.0693 24.5687 27.2731 25.8268C27.6717 24.9322 27.8937 23.9368 27.8937 22.8995C27.8937 18.7458 24.3548 15.3304 19.9939 15.3304C15.6329 15.3304 12.0986 18.7458 12.0986 22.9018C12.0986 23.9391 12.3217 24.9311 12.7203 25.8268C13.923 24.5687 16.7268 23.6809 19.995 23.6809H19.9939Z" fill="#EDF6FB"/>
<path d="M19.9925 23.6888C23.2585 23.6888 26.0521 24.5698 27.2536 25.8166C27.6511 24.93 27.8731 23.9425 27.8731 22.9142C27.8731 18.7945 24.3433 15.3972 19.9937 15.3972C15.644 15.3972 12.1177 18.7956 12.1177 22.9165C12.1177 23.9447 12.3408 24.9288 12.7382 25.8166C13.9375 24.5698 16.7346 23.6888 19.9937 23.6888H19.9925Z" fill="#EAF5FB"/>
<path d="M19.9923 23.6979C23.2503 23.6979 26.0361 24.571 27.2342 25.8076C27.6317 24.9277 27.8513 23.9493 27.8513 22.929C27.8513 18.8443 24.3306 15.4641 19.9923 15.4641C15.654 15.4641 12.1367 18.8455 12.1367 22.9312C12.1367 23.9516 12.3587 24.9277 12.7562 25.8076C13.952 24.571 16.7411 23.6979 19.9923 23.6979Z" fill="#E6F3FA"/>
<path d="M19.9915 23.7058C23.2404 23.7058 26.0194 24.571 27.2141 25.7974C27.6104 24.9254 27.8301 23.9549 27.8301 22.9437C27.8301 18.8941 24.3196 15.5308 19.9915 15.5308C15.6634 15.5308 12.1562 18.8953 12.1562 22.9459C12.1562 23.9572 12.3782 24.9254 12.7734 25.7985C13.9659 24.5721 16.7482 23.7069 19.9904 23.7069L19.9915 23.7058Z" fill="#E2F1F9"/>
<path d="M19.9901 23.7138C23.23 23.7138 26.0022 24.571 27.1935 25.7872C27.5887 24.9232 27.8084 23.9606 27.8084 22.9573C27.8084 18.9429 24.3069 15.5966 19.9901 15.5966C15.6733 15.5966 12.1753 18.9451 12.1753 22.9596C12.1753 23.9629 12.3961 24.9221 12.7913 25.7872C13.9804 24.571 16.7559 23.7138 19.9901 23.7138Z" fill="#DFEFF8"/>
<path d="M19.9893 23.7228C23.2212 23.7228 25.9855 24.5733 27.1734 25.7782C27.5686 24.9209 27.7872 23.9674 27.7872 22.9731C27.7872 18.9938 24.2948 15.6645 19.9893 15.6645C15.6838 15.6645 12.1948 18.9949 12.1948 22.9743C12.1948 23.9685 12.4156 24.9209 12.8097 25.7782C13.9965 24.5733 16.7642 23.7228 19.9893 23.7228Z" fill="#DBEEF8"/>
<path d="M19.988 23.7307C23.2108 23.7307 25.9694 24.5733 27.1539 25.768C27.548 24.9186 27.7666 23.9731 27.7666 22.9867C27.7666 19.0414 24.2832 15.7302 19.9891 15.7302C15.6949 15.7302 12.2139 19.0436 12.2139 22.989C12.2139 23.9753 12.4336 24.9186 12.8276 25.768C14.011 24.5733 16.7719 23.7307 19.988 23.7307Z" fill="#D8ECF7"/>
<path d="M19.9866 23.7398C23.2016 23.7398 25.9522 24.5744 27.1333 25.7589C27.5263 24.9175 27.7437 23.9798 27.7437 23.0026C27.7437 19.0923 24.2694 15.7981 19.9866 15.7981C15.7038 15.7981 12.2329 19.0934 12.2329 23.0037C12.2329 23.981 12.4526 24.9164 12.8444 25.7589C14.0244 24.5744 16.7785 23.7398 19.9855 23.7398H19.9866Z" fill="#D4EAF6"/>
<path d="M19.9856 23.7477C23.1915 23.7477 25.9353 24.5755 27.1131 25.7487C27.506 24.9141 27.7223 23.9855 27.7223 23.0173C27.7223 19.1422 24.2571 15.8649 19.9856 15.8649C15.7141 15.8649 12.2534 19.1433 12.2534 23.0184C12.2534 23.9878 12.472 24.9141 12.8638 25.7487C14.0404 24.5744 16.7865 23.7477 19.9867 23.7477H19.9856Z" fill="#D0E8F5"/>
<path d="M19.9847 23.7567C23.1827 23.7567 25.9186 24.5766 27.093 25.7396C27.4848 24.9129 27.7011 23.9923 27.7011 23.032C27.7011 19.1919 24.2449 15.9317 19.9847 15.9317C15.7246 15.9317 12.2729 19.1931 12.2729 23.0331C12.2729 23.9934 12.4915 24.9129 12.8822 25.7396C14.0565 24.5766 16.7947 23.7567 19.9859 23.7567H19.9847Z" fill="#CDE7F5"/>
<path d="M19.9834 23.7647C23.1723 23.7647 25.9014 24.5766 27.0735 25.7294C27.4642 24.9107 27.6805 23.998 27.6805 23.0467C27.6805 19.2418 24.2334 15.9985 19.9845 15.9985C15.7357 15.9985 12.292 19.2429 12.292 23.0479C12.292 24.0002 12.5094 24.9107 12.899 25.7294C14.0699 24.5766 16.8013 23.7647 19.9834 23.7647Z" fill="#C9E5F4"/>
<path d="M19.9826 23.7738C23.1635 23.7738 25.8847 24.5789 27.0534 25.7204C27.4441 24.9085 27.6581 24.0048 27.6581 23.0615C27.6581 19.2905 24.2201 16.0654 19.9826 16.0654C15.745 16.0654 12.3115 19.2916 12.3115 23.0626C12.3115 24.0059 12.5289 24.9085 12.9174 25.7204C14.0849 24.5778 16.8095 23.7738 19.9826 23.7738Z" fill="#C6E3F3"/>
<path d="M19.9812 23.7817C23.1531 23.7817 25.8687 24.5789 27.0328 25.7102C27.4224 24.9062 27.6364 24.0104 27.6364 23.0762C27.6364 19.3403 24.2074 16.1321 19.9812 16.1321C15.755 16.1321 12.3306 19.3414 12.3306 23.0773C12.3306 24.0127 12.5469 24.9073 12.9353 25.7113C14.0994 24.5789 16.8172 23.7828 19.9823 23.7828L19.9812 23.7817Z" fill="#C2E1F2"/>
<path d="M19.981 23.7908C23.145 23.7908 25.8526 24.5801 27.0134 25.7012C27.4018 24.9051 27.6158 24.0172 27.6158 23.0921C27.6158 19.3913 24.197 16.2001 19.981 16.2001C15.765 16.2001 12.3496 19.3913 12.3496 23.0921C12.3496 24.0184 12.5659 24.9051 12.9532 25.7012C14.1139 24.5801 16.8249 23.7908 19.981 23.7908Z" fill="#BFE0F2"/>
<path d="M19.9802 23.7987C23.1351 23.7987 25.8359 24.5801 26.9932 25.691C27.3817 24.9017 27.5946 24.0229 27.5946 23.1056C27.5946 19.44 24.1848 16.2658 19.9802 16.2658C15.7755 16.2658 12.3691 19.4411 12.3691 23.1068C12.3691 24.0252 12.5843 24.9028 12.9705 25.6921C14.1289 24.5812 16.8309 23.7998 19.979 23.7998L19.9802 23.7987Z" fill="#BBDEF1"/>
<path d="M19.9788 23.8066C23.1247 23.8066 25.8187 24.5811 26.9738 25.6807C27.3611 24.8994 27.574 24.0285 27.574 23.1203C27.574 19.4898 24.1733 16.3326 19.9799 16.3326C15.7866 16.3326 12.3882 19.4909 12.3882 23.1215C12.3882 24.0308 12.6033 24.9016 12.9884 25.6819C14.1434 24.5811 16.8386 23.8077 19.9777 23.8077L19.9788 23.8066Z" fill="#B7DCF0"/>
<path d="M19.978 23.8157C23.1159 23.8157 25.802 24.5823 26.9537 25.6717C27.3398 24.8982 27.5516 24.0353 27.5516 23.1351C27.5516 19.5385 24.16 16.3994 19.978 16.3994C15.7959 16.3994 12.4077 19.5396 12.4077 23.1362C12.4077 24.0376 12.6217 24.8994 13.0068 25.6728C14.1584 24.5834 16.8468 23.8168 19.9768 23.8168L19.978 23.8157Z" fill="#B4DAEF"/>
<path d="M19.9765 23.8236C23.1053 23.8236 25.7847 24.5823 26.9329 25.6615C27.318 24.8949 27.5297 24.041 27.5297 23.1498C27.5297 19.5883 24.1472 16.4662 19.9765 16.4662C15.8058 16.4662 12.4277 19.5895 12.4277 23.1509C12.4277 24.0433 12.6418 24.8971 13.0257 25.6627C14.1739 24.5835 16.8555 23.8247 19.9776 23.8247L19.9765 23.8236Z" fill="#B0D9EF"/>
<path d="M19.9756 23.8326C23.0966 23.8326 25.768 24.5845 26.9128 25.6524C27.2979 24.8937 27.5085 24.0478 27.5085 23.1645C27.5085 19.6381 24.135 16.533 19.9756 16.533C15.8162 16.533 12.4473 19.6393 12.4473 23.1645C12.4473 24.0489 12.6602 24.8948 13.0429 25.6524C14.1889 24.5834 16.8626 23.8326 19.9756 23.8326Z" fill="#ADD7EE"/>
<path d="M19.9743 23.8406C23.0862 23.8406 25.7519 24.5846 26.8922 25.6434C27.2761 24.8926 27.4868 24.0546 27.4868 23.1804C27.4868 19.6891 24.1223 16.601 19.9743 16.601C15.8262 16.601 12.4663 19.6891 12.4663 23.1793C12.4663 24.0546 12.6792 24.8926 13.0608 25.6423C14.2034 24.5835 16.8692 23.8395 19.9743 23.8395V23.8406Z" fill="#A9D5ED"/>
<path d="M19.9734 23.8496C23.0774 23.8496 25.7352 24.5857 26.8733 25.6343C27.256 24.8903 27.4667 24.0613 27.4667 23.1962C27.4667 19.7389 24.1113 16.6689 19.9746 16.6689C15.8378 16.6689 12.4858 19.7389 12.4858 23.1939C12.4858 24.0613 12.6976 24.8903 13.0792 25.6331C14.2184 24.5857 16.8774 23.8484 19.9734 23.8484V23.8496Z" fill="#A5D3EC"/>
<path d="M19.9721 23.8576C23.067 23.8576 25.718 24.5857 26.8527 25.6241C27.2354 24.8881 27.4438 24.0671 27.4438 23.2098C27.4438 19.7876 24.0975 16.7346 19.9721 16.7346C15.8467 16.7346 12.5049 19.7876 12.5049 23.2087C12.5049 24.0671 12.7166 24.8881 13.0971 25.6241C14.233 24.5868 16.8851 23.8576 19.9732 23.8576H19.9721Z" fill="#A2D2EC"/>
<path d="M19.9712 23.8666C23.0582 23.8666 25.7013 24.588 26.8326 25.6151C27.2142 24.8869 27.4226 24.0738 27.4226 23.2257C27.4226 19.8386 24.0853 16.8026 19.9712 16.8026C15.8571 16.8026 12.5244 19.8374 12.5244 23.2234C12.5244 24.0738 12.735 24.8869 13.1144 25.6139C14.2468 24.5868 16.8922 23.8655 19.9712 23.8655V23.8666Z" fill="#9ED0EB"/>
<path d="M19.9699 23.8745C23.0478 23.8745 25.6841 24.588 26.812 25.6049C27.1925 24.8835 27.4008 24.0795 27.4008 23.2392C27.4008 19.8873 24.0738 16.8682 19.9699 16.8682C15.866 16.8682 12.5435 19.8873 12.5435 23.2381C12.5435 24.0795 12.7541 24.8846 13.1323 25.6049C14.2625 24.588 16.8999 23.8745 19.9699 23.8745Z" fill="#9BCEEA"/>
<path d="M19.9697 23.8836C23.0397 23.8836 25.668 24.5891 26.7937 25.5959C27.1742 24.8824 27.3814 24.0863 27.3814 23.2551C27.3814 19.9383 24.0634 16.9362 19.9708 16.9362C15.8782 16.9362 12.5625 19.9371 12.5625 23.2529C12.5625 24.0863 12.772 24.8824 13.1502 25.5947C14.277 24.5891 16.9076 23.8825 19.9685 23.8825L19.9697 23.8836Z" fill="#97CCE9"/>
<path d="M19.9687 23.8916C23.0296 23.8916 25.6523 24.5903 26.7734 25.5857C27.1528 24.8802 27.3589 24.092 27.3589 23.2687C27.3589 19.9858 24.0499 17.0019 19.9687 17.0019C15.8874 17.0019 12.583 19.987 12.583 23.2676C12.583 24.092 12.7914 24.8813 13.1696 25.5857C14.293 24.5903 16.9157 23.8916 19.9698 23.8916H19.9687Z" fill="#94CBE9"/>
<path d="M19.9673 23.8994C23.0203 23.8994 25.6351 24.5902 26.7528 25.5754C27.131 24.8767 27.3371 24.0976 27.3371 23.2834C27.3371 20.0356 24.0373 17.0687 19.9673 17.0687C15.8974 17.0687 12.6021 20.0356 12.6021 23.2823C12.6021 24.0987 12.8104 24.879 13.1864 25.5754C14.3063 24.5902 16.9222 23.8994 19.9673 23.8994Z" fill="#90C9E8"/>
<path d="M19.9675 23.9187C23.016 23.9187 25.6274 24.6049 26.744 25.5834C27.1222 24.8892 27.3283 24.1157 27.3283 23.3061C27.3283 20.0798 24.0329 17.1298 19.9687 17.1298C15.9044 17.1298 12.6113 20.0809 12.6113 23.3049C12.6113 24.1157 12.8197 24.8914 13.1957 25.5834C14.3145 24.6049 16.927 23.9187 19.9675 23.9187Z" fill="#8BC7E7"/>
<path d="M19.9676 23.938C23.0116 23.938 25.6195 24.6197 26.735 25.5913C27.1121 24.9016 27.3182 24.1339 27.3182 23.3298C27.3182 20.124 24.0273 17.191 19.9676 17.191C15.9079 17.191 12.6216 20.1251 12.6216 23.3287C12.6216 24.1339 12.8288 24.9039 13.2048 25.5924C14.3213 24.6208 16.9304 23.9391 19.9676 23.938Z" fill="#87C4E6"/>
<path d="M19.9677 23.9572C23.0082 23.9572 25.6128 24.6344 26.726 25.6003C27.1031 24.9152 27.308 24.152 27.308 23.3536C27.308 20.1692 24.0217 17.2532 19.9677 17.2532C15.9136 17.2532 12.6318 20.1692 12.6318 23.3525C12.6318 24.1531 12.8391 24.9175 13.2139 25.6015C14.3293 24.6355 16.935 23.9583 19.9677 23.9583V23.9572Z" fill="#82C2E5"/>
<path d="M19.9677 23.9764C23.0038 23.9764 25.6049 24.6491 26.7158 25.6083C27.0918 24.9277 27.2968 24.1701 27.2968 23.3763C27.2968 20.2123 24.0139 17.3144 19.9666 17.3144C15.9193 17.3144 12.6421 20.2134 12.6421 23.3751C12.6421 24.1701 12.8493 24.9299 13.223 25.6094C14.3373 24.6502 16.9396 23.9776 19.9677 23.9776V23.9764Z" fill="#7DC0E4"/>
<path d="M19.9678 23.9957C22.9993 23.9957 25.5971 24.6638 26.7068 25.6173C27.0817 24.9413 27.2878 24.1882 27.2878 23.4C27.2878 20.2576 24.0094 17.3755 19.9678 17.3755C15.9262 17.3755 12.6523 20.2576 12.6523 23.3989C12.6523 24.1893 12.8596 24.9424 13.2321 25.6173C14.3442 24.665 16.9431 23.9957 19.9678 23.9957Z" fill="#79BEE3"/>
<path d="M19.9674 24.015C22.9955 24.015 25.5898 24.6797 26.6974 25.6253C27.0722 24.9537 27.2772 24.2063 27.2772 23.4227C27.2772 20.3006 24.0033 17.4367 19.9674 17.4367C15.9314 17.4367 12.6621 20.3017 12.6621 23.4216C12.6621 24.2063 12.8682 24.9549 13.2419 25.6253C14.3528 24.6786 16.9483 24.015 19.9674 24.015Z" fill="#74BBE2"/>
<path d="M19.9676 24.0342C22.9912 24.0342 25.5821 24.6944 26.6885 25.6332C27.0622 24.9662 27.2672 24.2233 27.2672 23.4464C27.2672 20.3459 23.9979 17.499 19.9676 17.499C15.9373 17.499 12.6714 20.3459 12.6714 23.4453C12.6714 24.2244 12.8775 24.9684 13.2501 25.6343C14.3587 24.6944 16.9508 24.0353 19.9665 24.0342H19.9676Z" fill="#6FB9E1"/>
<path d="M19.9676 24.0535C22.9867 24.0535 25.5743 24.7091 26.6795 25.6422C27.0532 24.9798 27.2582 24.2426 27.2582 23.4703C27.2582 20.3901 23.9934 17.5613 19.9688 17.5613C15.9442 17.5613 12.6816 20.3901 12.6816 23.468C12.6816 24.2426 12.8877 24.9798 13.2592 25.6422C14.3667 24.7091 16.9554 24.0535 19.9665 24.0535H19.9676Z" fill="#6BB7E0"/>
<path d="M19.9677 24.0727C22.9834 24.0727 25.5675 24.7238 26.6705 25.6502C27.0431 24.9922 27.2481 24.2595 27.2481 23.4929C27.2481 20.4342 23.9878 17.6213 19.9677 17.6213C15.9476 17.6213 12.6919 20.4342 12.6919 23.4918C12.6919 24.2607 12.898 24.9933 13.2683 25.6513C14.3735 24.7238 16.9589 24.0738 19.9666 24.0727H19.9677Z" fill="#66B5DF"/>
<path d="M19.9678 24.092C22.9789 24.092 25.5597 24.7386 26.6615 25.6592C27.033 25.0058 27.2379 24.2788 27.2379 23.5167C27.2379 20.4784 23.9822 17.6836 19.9678 17.6836C15.9533 17.6836 12.7021 20.4784 12.7021 23.5144C12.7021 24.2777 12.9071 25.0047 13.2786 25.6581C14.3827 24.7375 16.9646 24.0908 19.9678 24.0908V24.092Z" fill="#62B2DE"/>
<path d="M19.9678 24.1112C22.9744 24.1112 25.5518 24.7533 26.6514 25.6671C27.0228 25.0171 27.2278 24.2969 27.2278 23.5405C27.2278 20.5237 23.9766 17.7458 19.9678 17.7458C15.9591 17.7458 12.7124 20.5226 12.7124 23.5382C12.7124 24.2969 12.9174 25.0183 13.2877 25.6671C14.3895 24.7533 16.9692 24.1112 19.9678 24.1112Z" fill="#5DB0DD"/>
<path d="M19.9674 24.1304C22.9706 24.1304 25.5435 24.768 26.6419 25.6751C27.0122 25.0296 27.2172 24.3139 27.2172 23.5631C27.2172 20.5678 23.9705 17.8058 19.9674 17.8058C15.9643 17.8058 12.7222 20.5667 12.7222 23.562C12.7222 24.315 12.9271 25.0318 13.2963 25.6762C14.397 24.768 16.9722 24.1316 19.9674 24.1304Z" fill="#58AEDC"/>
<path d="M19.9676 24.1497C22.9663 24.1497 25.5369 24.7827 26.6331 25.6841C27.0034 25.0432 27.2072 24.3332 27.2072 23.5869C27.2072 20.612 23.9639 17.8682 19.9676 17.8682C15.9713 17.8682 12.7314 20.612 12.7314 23.5846C12.7314 24.3332 12.9364 25.0432 13.3045 25.6841C14.4029 24.7827 16.9758 24.1497 19.9665 24.1497H19.9676Z" fill="#54ACDB"/>
<path d="M19.9677 24.169C22.9618 24.169 25.529 24.7986 26.6241 25.6921C26.9932 25.0557 27.1971 24.3502 27.1971 23.6096C27.1971 20.6562 23.9583 17.9293 19.9677 17.9293C15.977 17.9293 12.7417 20.6562 12.7417 23.6084C12.7417 24.3513 12.9455 25.0568 13.3136 25.6932C14.4109 24.7986 16.9792 24.1701 19.9666 24.169H19.9677Z" fill="#4FA9DA"/>
<path d="M19.9678 24.1882C22.9585 24.1882 25.5212 24.8133 26.6151 25.7C26.9831 25.0681 27.1881 24.3683 27.1881 23.6333C27.1881 20.7004 23.9539 17.9905 19.9678 17.9905C15.9816 17.9905 12.752 20.7004 12.752 23.6311C12.752 24.3683 12.9558 25.0693 13.3238 25.7C14.42 24.8122 16.9849 24.1882 19.9678 24.1871V24.1882Z" fill="#4AA7D9"/>
<path d="M19.9673 24.2075C22.9535 24.2075 25.5139 24.828 26.6056 25.709C26.9736 25.0817 27.1775 24.3864 27.1775 23.6571C27.1775 20.7456 23.9478 18.0527 19.9673 18.0527C15.9869 18.0527 12.7617 20.7445 12.7617 23.6548C12.7617 24.3875 12.9656 25.0817 13.3325 25.709C14.4264 24.8269 16.9879 24.2075 19.9673 24.2063V24.2075Z" fill="#46A5D9"/>
<path d="M19.9674 24.2256C22.9491 24.2256 25.5061 24.8416 26.5966 25.7158C26.9635 25.093 27.1673 24.4033 27.1673 23.6786C27.1673 20.7875 23.9422 18.1127 19.9674 18.1127C15.9926 18.1127 12.772 20.7886 12.772 23.6775C12.772 24.4045 12.9758 25.0941 13.3416 25.7169C14.4344 24.8416 16.9925 24.2267 19.9674 24.2256Z" fill="#41A3D8"/>
<path d="M19.9674 24.2448C22.9457 24.2448 25.4982 24.8563 26.5865 25.7249C26.9534 25.1066 27.1572 24.4215 27.1572 23.7024C27.1572 20.8328 23.9366 18.175 19.9674 18.175C15.9983 18.175 12.7822 20.8328 12.7822 23.7013C12.7822 24.4226 12.9861 25.1077 13.3507 25.726C14.4412 24.8575 16.996 24.246 19.9674 24.246V24.2448Z" fill="#3CA0D7"/>
<path d="M19.9677 24.2641C22.9414 24.2641 25.4916 24.8711 26.5776 25.7328C26.9434 25.1191 27.1472 24.4396 27.1472 23.7262C27.1472 20.877 23.9311 18.2362 19.9677 18.2362C16.0042 18.2362 12.7915 20.877 12.7915 23.7239C12.7915 24.4408 12.9942 25.1191 13.36 25.734C14.4494 24.8711 17.0007 24.2652 19.9677 24.2641Z" fill="#389ED6"/>
<path d="M19.9677 24.2834C22.9369 24.2834 25.4838 24.8858 26.5686 25.7408C26.9344 25.1315 27.1371 24.4577 27.1371 23.7488C27.1371 20.9212 23.9255 18.2974 19.9677 18.2974C16.0099 18.2974 12.8018 20.9212 12.8018 23.7477C12.8018 24.4589 13.0045 25.1327 13.3691 25.743C14.4562 24.8869 17.0053 24.2856 19.9677 24.2845V24.2834Z" fill="#339CD5"/>
<path d="M19.9678 24.3026C22.9336 24.3026 25.4759 24.9005 26.5596 25.7498C26.9243 25.1451 27.1281 24.4758 27.1281 23.7726C27.1281 20.9653 23.9211 18.3596 19.9678 18.3596C16.0145 18.3596 12.812 20.9653 12.812 23.7715C12.812 24.477 13.0147 25.1462 13.3782 25.7509C14.4642 24.9016 17.0088 24.3037 19.9678 24.3026Z" fill="#2E9AD4"/>
<path d="M19.9674 24.3219C22.9287 24.3219 25.4687 24.9153 26.5501 25.7578C26.9136 25.1576 27.1175 24.494 27.1175 23.7953C27.1175 21.0095 23.915 18.4197 19.9674 18.4197C16.0197 18.4197 12.8218 21.0095 12.8218 23.7942C12.8218 24.4951 13.0245 25.1576 13.3869 25.7589C14.4706 24.9153 17.0129 24.323 19.9674 24.3219Z" fill="#2A97D3"/>
<path d="M19.9674 24.3411C22.9242 24.3411 25.4608 24.9311 26.5411 25.7656C26.9046 25.17 27.1074 24.5109 27.1074 23.8179C27.1074 21.0525 23.9083 18.4808 19.9674 18.4808C16.0266 18.4808 12.832 21.0536 12.832 23.8179C12.832 24.5132 13.0336 25.1711 13.396 25.7679C14.4786 24.9311 17.0163 24.3433 19.9674 24.3422V24.3411Z" fill="#2595D2"/>
<path d="M19.9675 24.3603C22.9208 24.3603 25.4529 24.9458 26.5321 25.7747C26.8945 25.1836 27.0972 24.5302 27.0972 23.8428C27.0972 21.0989 23.9027 18.5442 19.9675 18.5442C16.0323 18.5442 12.8423 21.0978 12.8423 23.8405C12.8423 24.5313 13.0439 25.1836 13.4062 25.7758C14.4877 24.9458 17.0221 24.3614 19.9686 24.3603H19.9675Z" fill="#2193D1"/>
<path d="M19.9677 24.3796C22.9165 24.3796 25.4464 24.9605 26.5222 25.7827C26.8845 25.1949 27.0872 24.5472 27.0872 23.8655C27.0872 21.142 23.8972 18.6042 19.9677 18.6042C16.0382 18.6042 12.8516 21.142 12.8516 23.8644C12.8516 24.5495 13.0531 25.1961 13.4144 25.7849C14.4936 24.9605 17.0245 24.3819 19.9677 24.3807V24.3796Z" fill="#1C91D0"/>
<path d="M19.9678 24.3988C22.9121 24.3988 25.4385 24.9752 26.5132 25.7917C26.8744 25.2085 27.0771 24.5664 27.0771 23.8892C27.0771 21.1873 23.8916 18.6665 19.9678 18.6665C16.0439 18.6665 12.8618 21.1873 12.8618 23.887C12.8618 24.5664 13.0634 25.2085 13.4235 25.7917C14.5016 24.9741 17.0291 24.3988 19.9678 24.3977V24.3988Z" fill="#178ECF"/>
<path d="M19.9678 24.4181C22.9087 24.4181 25.4306 24.99 26.5042 25.7996C26.8643 25.221 27.067 24.5834 27.067 23.9119C27.067 21.2303 23.886 18.7277 19.9667 18.7277C16.0474 18.7277 12.8721 21.2314 12.8721 23.9108C12.8721 24.5857 13.0725 25.2221 13.4326 25.8008C14.5084 24.99 17.0337 24.4192 19.9667 24.4181H19.9678Z" fill="#138CCE"/>
<path d="M19.9674 24.4373C22.9038 24.4373 25.4234 25.0047 26.4947 25.8075C26.8548 25.2334 27.0575 24.6015 27.0575 23.9356C27.0575 21.2756 23.8811 18.7899 19.9674 18.7899C16.0538 18.7899 12.8818 21.2756 12.8818 23.9334C12.8818 24.6026 13.0823 25.2334 13.4424 25.8087C14.5171 25.0047 17.0378 24.4384 19.9674 24.4362V24.4373Z" fill="#0E8ACD"/>
<path d="M19.9675 24.4566C22.8993 24.4566 25.4156 25.0194 26.4857 25.8166C26.8447 25.247 27.0474 24.6208 27.0474 23.9594C27.0474 21.3198 23.8755 18.8511 19.9675 18.8511C16.0595 18.8511 12.8921 21.3198 12.8921 23.9572C12.8921 24.6208 13.0925 25.247 13.4515 25.8177C14.5239 25.0194 17.0424 24.4577 19.9675 24.4566Z" fill="#0988CC"/>
<path d="M19.9677 24.4758C22.8961 24.4758 25.4078 25.0341 26.4769 25.8245C26.8358 25.2595 27.0374 24.6378 27.0374 23.9821C27.0374 21.3639 23.87 18.9122 19.9677 18.9122C16.0654 18.9122 12.9014 21.3639 12.9014 23.981C12.9014 24.64 13.1018 25.2595 13.4597 25.8268C14.5309 25.0352 17.0449 24.4781 19.9666 24.477L19.9677 24.4758Z" fill="#0585CB"/>
<path d="M19.9677 24.4951C22.8917 24.4951 25.4 25.05 26.4679 25.8336C26.8257 25.2731 27.0284 24.657 27.0284 24.0059C27.0284 21.4081 23.8655 18.9745 19.9689 18.9745C16.0722 18.9745 12.9116 21.4081 12.9116 24.0036C12.9116 24.657 13.1109 25.272 13.4688 25.8348C14.5378 25.05 17.0495 24.4962 19.9666 24.4951H19.9677Z" fill="#0083CA"/>
</g>
<path d="M19.9307 21.9037C17.3725 21.9037 14.999 22.3385 13.041 23.0746C14.2176 25.7075 16.8573 27.5409 19.9329 27.5409C23.0086 27.5409 25.6381 25.7052 26.8181 23.0746C24.8601 22.3385 22.4832 21.9037 19.9307 21.9037Z" fill="white"/>
</g>
</g>
</g>
<defs>
<clipPath id="clip0_301_11">
<rect x="6.66699" y="40" width="40" height="26.6667" rx="1.28" transform="rotate(-90 6.66699 40)" fill="white"/>
</clipPath>
<clipPath id="clip1_301_11">
<rect width="16" height="15.8301" fill="white" transform="translate(12.0005 12.0833)"/>
</clipPath>
<clipPath id="clip2_301_11">
<rect width="16" height="16" fill="white" transform="translate(12.0005 12.0833)"/>
</clipPath>
</defs>
</svg>
