<svg width="1024" height="1024" viewBox="0 0 1024 1024" fill="none" xmlns="http://www.w3.org/2000/svg">
<rect width="1024" height="1024" rx="180" fill="#2EA4AB"/>
<path fill-rule="evenodd" clip-rule="evenodd" d="M565.778 703.196L695.288 737.9L773.85 444.71C807.594 318.769 733.479 189.484 608.305 155.944C483.135 122.404 354.306 197.311 320.56 323.252L242 616.44L371.511 651.143L345.324 748.873C330.862 802.851 362.625 858.255 416.271 872.629C469.918 887.007 525.129 854.904 539.591 800.926L565.778 703.196ZM647.992 655.397L709.093 427.359C733.199 337.401 680.255 245.054 590.849 221.097C501.44 197.14 409.42 250.645 385.316 340.603L324.213 568.64L453.724 603.344L410.08 766.227C405.259 784.219 415.847 802.686 433.729 807.476C451.611 812.27 470.015 801.569 474.836 783.576L518.48 620.694L647.992 655.397Z" fill="#FDFEFE"/>
<path fill-rule="evenodd" clip-rule="evenodd" d="M304.082 633.076L371.512 651.143L345.326 748.873C330.862 802.851 362.625 858.256 416.272 872.629C469.919 887.007 525.129 854.904 539.592 800.926L565.779 703.197L695.289 737.9L773.851 444.71C781.662 415.553 783.694 386.216 780.648 357.93L714.427 396.162C713.64 406.52 711.884 416.955 709.093 427.359L647.992 655.397L518.481 620.694L474.837 783.577C470.015 801.569 451.612 812.27 433.73 807.476C415.848 802.686 405.26 784.215 410.081 766.227L453.725 603.34L386.692 585.38L304.082 633.076Z" fill="#FDFEFE"/>
</svg>
