<svg width="24" height="24" viewBox="0 0 24 24" fill="none" xmlns="http://www.w3.org/2000/svg">
<g clip-path="url(#clip0_3609_771)">
<mask id="mask0_3609_771" style="mask-type:alpha" maskUnits="userSpaceOnUse" x="0" y="0" width="25" height="24">
<rect x="0.142822" width="24" height="24" fill="#D9D9D9"/>
</mask>
<g mask="url(#mask0_3609_771)">
<path d="M9.69286 17.2769C9.57234 17.2769 9.46016 17.2577 9.35633 17.2192C9.25248 17.1808 9.15376 17.1148 9.06018 17.0212L4.88518 12.8462C4.74031 12.7013 4.67044 12.5231 4.67555 12.3116C4.68069 12.1001 4.75569 11.9219 4.90055 11.777C5.04542 11.6321 5.22106 11.5597 5.42748 11.5597C5.63388 11.5597 5.80951 11.6321 5.95438 11.777L9.69286 15.5154L18.3313 6.87699C18.4762 6.73211 18.6544 6.65967 18.8659 6.65967C19.0775 6.65967 19.2557 6.73211 19.4005 6.87699C19.5454 7.02186 19.6178 7.20006 19.6178 7.41159C19.6178 7.62313 19.5454 7.80133 19.4005 7.94619L10.3255 17.0212C10.2319 17.1148 10.1332 17.1808 10.0294 17.2192C9.92555 17.2577 9.81337 17.2769 9.69286 17.2769Z" fill="#2EA4AB"/>
</g>
</g>
<defs>
<clipPath id="clip0_3609_771">
<rect width="24" height="24" fill="white"/>
</clipPath>
</defs>
</svg>
