<svg width="81" height="80" viewBox="0 0 81 80" fill="none" xmlns="http://www.w3.org/2000/svg">
<mask id="mask0_4967_1644" style="mask-type:alpha" maskUnits="userSpaceOnUse" x="0" y="0" width="81" height="80">
<rect x="0.5" width="80" height="80" fill="#D9D9D9"/>
</mask>
<g mask="url(#mask0_4967_1644)">
<path d="M40.4949 15C47.4726 15 53.3846 17.4214 58.2307 22.2642C63.0768 27.1069 65.4999 33.0171 65.4999 39.9948C65.4999 46.9726 63.0785 52.8845 58.2357 57.7306C53.393 62.5768 47.4828 64.9998 40.5051 64.9998C33.5274 64.9998 27.6154 62.5784 22.7693 57.7357C17.9232 52.8929 15.5001 46.9827 15.5001 40.005C15.5001 33.0273 17.9215 27.1154 22.7642 22.2693C27.607 17.4231 33.5172 15 40.4949 15ZM40.5 51.0255C42.4829 51.0255 44.3344 50.5683 46.0545 49.6538C47.7746 48.7392 49.1901 47.4849 50.3013 45.8909C50.6132 45.3225 50.61 44.7542 50.2917 44.1858C49.9733 43.6174 49.4743 43.3333 48.7948 43.3333H32.2052C31.5257 43.3333 31.0267 43.6174 30.7083 44.1858C30.39 44.7542 30.3868 45.3225 30.6987 45.8909C31.8099 47.4849 33.2254 48.7392 34.9455 49.6538C36.6656 50.5683 38.5171 51.0255 40.5 51.0255ZM29.2821 33.3389C29.2821 34.1941 29.5714 34.9091 30.1499 35.4838C30.7284 36.0587 31.4453 36.3461 32.3005 36.3461C33.1557 36.3461 33.8707 36.0568 34.4455 35.4783C35.0203 34.8997 35.3077 34.1828 35.3077 33.3276C35.3077 32.4724 35.0184 31.7574 34.4399 31.1827C33.8614 30.6078 33.1445 30.3204 32.2893 30.3204C31.434 30.3204 30.719 30.6097 30.1442 31.1883C29.5695 31.7668 29.2821 32.4837 29.2821 33.3389ZM45.6923 33.3389C45.6923 34.1941 45.9816 34.9091 46.5601 35.4838C47.1386 36.0587 47.8555 36.3461 48.7108 36.3461C49.566 36.3461 50.281 36.0568 50.8557 35.4783C51.4305 34.8997 51.7179 34.1828 51.7179 33.3276C51.7179 32.4724 51.4286 31.7574 50.8501 31.1827C50.2716 30.6078 49.5547 30.3204 48.6995 30.3204C47.8443 30.3204 47.1293 30.6097 46.5545 31.1883C45.9797 31.7668 45.6923 32.4837 45.6923 33.3389ZM7.999 19.9999C7.29033 19.9999 6.69669 19.7603 6.21808 19.2812C5.73936 18.802 5.5 18.2083 5.5 17.5V13.9743C5.5 11.4814 6.3725 9.3625 8.1175 7.6175C9.8625 5.8725 11.9814 5 14.4743 5H18C18.7083 5 19.302 5.2397 19.7812 5.71909C20.2604 6.19847 20.5 6.79247 20.5 7.50108C20.5 8.20975 20.2604 8.80339 19.7813 9.282C19.3021 9.76061 18.7084 9.99992 18.0001 9.99992H14.4744C13.3483 9.99992 12.4044 10.3808 11.6427 11.1426C10.8809 11.9043 10.5 12.8482 10.5 13.9743V17.5C10.5 18.2083 10.2603 18.802 9.78092 19.2812C9.30158 19.7603 8.70767 19.9999 7.999 19.9999ZM14.4744 74.9998C11.9815 74.9998 9.86258 74.1273 8.11758 72.3823C6.37258 70.6373 5.50008 68.5184 5.50008 66.0255V62.4998C5.50008 61.7916 5.73981 61.1978 6.21925 60.7187C6.69853 60.2395 7.29247 59.9999 8.00108 59.9999C8.70975 59.9999 9.30339 60.2395 9.782 60.7187C10.2607 61.1978 10.5 61.7916 10.5 62.4998V66.0255C10.5 67.1516 10.8809 68.0955 11.6427 68.8572C12.4044 69.619 13.3483 69.9999 14.4744 69.9999H18.0001C18.7084 69.9999 19.3021 70.2396 19.7813 70.719C20.2604 71.1983 20.5 71.7923 20.5 72.501C20.5 73.2096 20.2604 73.8032 19.7813 74.2818C19.3021 74.7606 18.7084 74.9999 18.0001 74.9999L14.4744 74.9998ZM62.9999 74.6793C62.2916 74.6793 61.6979 74.4396 61.2188 73.9602C60.7396 73.4808 60.5 72.8869 60.5 72.1783C60.5 71.4696 60.7396 70.876 61.2188 70.3974C61.6979 69.9188 62.2916 69.6795 62.9999 69.6795H66.5256C67.6517 69.6795 68.5956 69.2986 69.3573 68.5368C70.1191 67.775 70.5 66.8311 70.5 65.705V62.1793C70.5 61.471 70.7397 60.8773 71.2191 60.3981C71.6984 59.919 72.2924 59.6794 73.0011 59.6794C73.7097 59.6794 74.3033 59.919 74.7819 60.3981C75.2606 60.8773 75.4999 61.471 75.4999 62.1793V65.705C75.4999 68.1978 74.6274 70.3168 72.8824 72.0618C71.1374 73.8068 69.0185 74.6793 66.5256 74.6793H62.9999ZM70.5 17.5V13.9743C70.5 12.8482 70.1191 11.9043 69.3573 11.1426C68.5956 10.3808 67.6517 9.99992 66.5256 9.99992H62.9999C62.2916 9.99992 61.6979 9.76022 61.2188 9.28083C60.7396 8.8015 60.5 8.2075 60.5 7.49884C60.5 6.79022 60.7396 6.19661 61.2188 5.718C61.6979 5.23934 62.2916 5 62.9999 5H66.5256C69.0185 5 71.1374 5.8725 72.8824 7.6175C74.6274 9.3625 75.4999 11.4814 75.4999 13.9743V17.5C75.4999 18.2083 75.2602 18.802 74.7808 19.2812C74.3014 19.7603 73.7074 19.9999 72.9988 19.9999C72.2902 19.9999 71.6965 19.7603 71.2179 19.2812C70.7393 18.802 70.5 18.2083 70.5 17.5Z" fill="#2EA4AB"/>
</g>
</svg>
