<svg width="89" height="89" viewBox="0 0 89 89" fill="none" xmlns="http://www.w3.org/2000/svg">
<path fill-rule="evenodd" clip-rule="evenodd" d="M5.19644 4.725H19.4929V0H0.471436V18.9964H5.19644V4.725ZM69.5107 0V4.725H83.8072V18.9964H88.525V0H69.5107ZM5.19644 69.0607H0.471436V88.0571H19.4929V83.3321H5.19644V69.0607ZM83.8036 83.3321H69.5072V88.0571H88.5286V69.0607H83.8036V83.3321Z" fill="#222222"/>
<path fill-rule="evenodd" clip-rule="evenodd" d="M5.19644 4.725H19.4929V0H0.471436V18.9964H5.19644V4.725ZM69.5107 0V4.725H83.8072V18.9964H88.525V0H69.5107ZM5.19644 69.0607H0.471436V88.0571H19.4929V83.3321H5.19644V69.0607ZM83.8036 83.3321H69.5072V88.0571H88.5286V69.0607H83.8036V83.3321Z" fill="url(#paint0_linear_1256_4924)"/>
<path d="M72.7497 57.486C75.5354 56.4931 77.7639 54.3538 78.8747 51.611L81.4568 43.5288C82.1068 41.4217 81.8997 39.1467 80.8747 37.1967C79.8354 35.311 78.0747 33.9288 75.9997 33.361L74.9997 33.0288C74.1354 16.8217 60.7282 4.13241 44.4997 4.15384C28.2854 4.17169 14.9068 16.8396 13.9997 33.0288L13.1247 33.3217C10.9997 33.8753 9.19251 35.2753 8.12466 37.1967C7.09965 39.1467 6.89251 41.4253 7.54251 43.5288L10.1247 51.611C11.2532 54.3824 13.5139 56.536 16.3318 57.5289L17.6675 57.986C19.6282 64.0753 22.8675 69.6717 27.1675 74.4038L29.8318 77.361C32.0961 79.8753 34.9675 81.7681 38.1675 82.861C40.2247 83.5396 42.3747 83.8896 44.5425 83.9039C46.7104 83.9039 48.8639 83.536 50.9175 82.8217C54.1175 81.7467 56.9889 79.8681 59.2497 77.361L61.9175 74.4038C66.2032 69.661 69.439 64.0681 71.4175 57.986L72.7497 57.486ZM76.7068 39.486C77.1604 40.2717 77.2532 41.2146 76.9568 42.0717L74.3747 50.4038C74.0318 51.1396 73.4997 51.7717 72.8318 52.236C72.8568 52.1288 72.8568 52.0146 72.8318 51.9038L74.7068 39.4038V38.2788C75.5104 38.3931 76.2318 38.8324 76.7068 39.486ZM70.2925 33.6538C70.389 35.2538 70.3175 36.861 70.0818 38.4467L69.6675 41.4038C66.4211 40.3181 63.089 39.511 59.7068 38.986C59.5997 34.6038 59.2068 30.236 58.5425 25.9038C63.0282 27.0753 67.0175 29.661 69.9175 33.2788L70.2925 33.6538ZM54.9997 38.4038C52.3747 38.111 49.6675 37.9467 46.6675 37.9038V23.9038C48.9461 24.0038 51.2139 24.2538 53.4568 24.6538C54.3032 29.1931 54.8175 33.7896 54.9997 38.4038ZM46.8318 19.0288V11.8217C49.7247 13.5146 51.7604 16.3646 52.4175 19.6538C50.6675 19.4038 48.6675 19.2788 46.8318 19.0288ZM46.8318 77.9467V62.0289C49.2497 62.0289 51.5425 62.0288 53.8318 61.6538C52.2068 70.6967 49.3318 76.0288 46.8318 78.111V77.9467ZM46.8318 57.111V42.611C49.7068 42.611 52.4997 42.861 55.1675 43.1538V45.2788C55.1889 49.1503 54.9818 53.0181 54.5425 56.861C52.0818 57.111 49.4997 57.236 46.8318 57.3217V57.111ZM59.7925 44.0288C62.9354 44.511 66.0211 45.3217 68.9997 46.4467L68.5818 49.236L68.2497 51.111C68.0318 52.2538 67.7497 53.3788 67.4175 54.486C64.764 55.3431 62.0461 55.986 59.2925 56.4039C59.6247 52.986 59.8318 49.3217 59.8318 45.486C59.8318 44.7788 59.7925 44.2788 59.7925 44.0288ZM64.3318 18.1967C66.1318 20.4467 67.5425 22.9824 68.4997 25.6967C65.089 23.3824 61.2925 21.6896 57.2925 20.6967C56.5532 16.8324 54.8461 13.2217 52.3318 10.1967C57.0318 11.6253 61.2068 14.411 64.3318 18.1967ZM14.6247 50.1967L12.0425 41.861C11.7461 41.0038 11.8389 40.0646 12.2925 39.2788C12.6997 38.5717 13.3497 38.036 14.1247 37.7788C14.1032 38.1538 14.1032 38.5288 14.1247 38.9038L15.6675 49.6538L15.9568 51.486C15.9782 51.611 15.9782 51.736 15.9568 51.861C15.3997 51.4074 14.9425 50.8396 14.6247 50.1967ZM33.3318 74.1967L30.6675 71.236C25.5104 65.5288 22.0711 58.4824 20.7497 50.9038L18.9175 38.4038C17.9175 31.4003 19.8354 24.2896 24.2211 18.7396C28.6068 13.186 35.0782 9.67169 42.1247 9.02884V78.986C41.2889 78.8431 40.4675 78.6324 39.6675 78.361C37.2354 77.5396 35.0532 76.1039 33.3318 74.1967ZM58.3318 71.236L55.6675 74.1967C55.3318 74.5289 54.9568 74.7789 54.6247 75.0717C56.6711 70.6253 58.0747 65.911 58.7925 61.0717C61.1211 60.7574 63.4282 60.3146 65.7068 59.736C63.9318 63.9574 61.4532 67.8431 58.3747 71.236H58.3318Z" fill="#222222"/>
<path d="M72.7497 57.486C75.5354 56.4931 77.7639 54.3538 78.8747 51.611L81.4568 43.5288C82.1068 41.4217 81.8997 39.1467 80.8747 37.1967C79.8354 35.311 78.0747 33.9288 75.9997 33.361L74.9997 33.0288C74.1354 16.8217 60.7282 4.13241 44.4997 4.15384C28.2854 4.17169 14.9068 16.8396 13.9997 33.0288L13.1247 33.3217C10.9997 33.8753 9.19251 35.2753 8.12466 37.1967C7.09965 39.1467 6.89251 41.4253 7.54251 43.5288L10.1247 51.611C11.2532 54.3824 13.5139 56.536 16.3318 57.5289L17.6675 57.986C19.6282 64.0753 22.8675 69.6717 27.1675 74.4038L29.8318 77.361C32.0961 79.8753 34.9675 81.7681 38.1675 82.861C40.2247 83.5396 42.3747 83.8896 44.5425 83.9039C46.7104 83.9039 48.8639 83.536 50.9175 82.8217C54.1175 81.7467 56.9889 79.8681 59.2497 77.361L61.9175 74.4038C66.2032 69.661 69.439 64.0681 71.4175 57.986L72.7497 57.486ZM76.7068 39.486C77.1604 40.2717 77.2532 41.2146 76.9568 42.0717L74.3747 50.4038C74.0318 51.1396 73.4997 51.7717 72.8318 52.236C72.8568 52.1288 72.8568 52.0146 72.8318 51.9038L74.7068 39.4038V38.2788C75.5104 38.3931 76.2318 38.8324 76.7068 39.486ZM70.2925 33.6538C70.389 35.2538 70.3175 36.861 70.0818 38.4467L69.6675 41.4038C66.4211 40.3181 63.089 39.511 59.7068 38.986C59.5997 34.6038 59.2068 30.236 58.5425 25.9038C63.0282 27.0753 67.0175 29.661 69.9175 33.2788L70.2925 33.6538ZM54.9997 38.4038C52.3747 38.111 49.6675 37.9467 46.6675 37.9038V23.9038C48.9461 24.0038 51.2139 24.2538 53.4568 24.6538C54.3032 29.1931 54.8175 33.7896 54.9997 38.4038ZM46.8318 19.0288V11.8217C49.7247 13.5146 51.7604 16.3646 52.4175 19.6538C50.6675 19.4038 48.6675 19.2788 46.8318 19.0288ZM46.8318 77.9467V62.0289C49.2497 62.0289 51.5425 62.0288 53.8318 61.6538C52.2068 70.6967 49.3318 76.0288 46.8318 78.111V77.9467ZM46.8318 57.111V42.611C49.7068 42.611 52.4997 42.861 55.1675 43.1538V45.2788C55.1889 49.1503 54.9818 53.0181 54.5425 56.861C52.0818 57.111 49.4997 57.236 46.8318 57.3217V57.111ZM59.7925 44.0288C62.9354 44.511 66.0211 45.3217 68.9997 46.4467L68.5818 49.236L68.2497 51.111C68.0318 52.2538 67.7497 53.3788 67.4175 54.486C64.764 55.3431 62.0461 55.986 59.2925 56.4039C59.6247 52.986 59.8318 49.3217 59.8318 45.486C59.8318 44.7788 59.7925 44.2788 59.7925 44.0288ZM64.3318 18.1967C66.1318 20.4467 67.5425 22.9824 68.4997 25.6967C65.089 23.3824 61.2925 21.6896 57.2925 20.6967C56.5532 16.8324 54.8461 13.2217 52.3318 10.1967C57.0318 11.6253 61.2068 14.411 64.3318 18.1967ZM14.6247 50.1967L12.0425 41.861C11.7461 41.0038 11.8389 40.0646 12.2925 39.2788C12.6997 38.5717 13.3497 38.036 14.1247 37.7788C14.1032 38.1538 14.1032 38.5288 14.1247 38.9038L15.6675 49.6538L15.9568 51.486C15.9782 51.611 15.9782 51.736 15.9568 51.861C15.3997 51.4074 14.9425 50.8396 14.6247 50.1967ZM33.3318 74.1967L30.6675 71.236C25.5104 65.5288 22.0711 58.4824 20.7497 50.9038L18.9175 38.4038C17.9175 31.4003 19.8354 24.2896 24.2211 18.7396C28.6068 13.186 35.0782 9.67169 42.1247 9.02884V78.986C41.2889 78.8431 40.4675 78.6324 39.6675 78.361C37.2354 77.5396 35.0532 76.1039 33.3318 74.1967ZM58.3318 71.236L55.6675 74.1967C55.3318 74.5289 54.9568 74.7789 54.6247 75.0717C56.6711 70.6253 58.0747 65.911 58.7925 61.0717C61.1211 60.7574 63.4282 60.3146 65.7068 59.736C63.9318 63.9574 61.4532 67.8431 58.3747 71.236H58.3318Z" fill="url(#paint1_linear_1256_4924)"/>
<defs>
<linearGradient id="paint0_linear_1256_4924" x1="50.406" y1="39.0727" x2="7.78723" y2="14.9811" gradientUnits="userSpaceOnUse">
<stop stop-color="#00D1C9"/>
<stop offset="1" stop-color="#00E25E"/>
</linearGradient>
<linearGradient id="paint1_linear_1256_4924" x1="49.507" y1="39.5405" x2="12.2581" y2="19.8289" gradientUnits="userSpaceOnUse">
<stop stop-color="#00D1C9"/>
<stop offset="1" stop-color="#00E25E"/>
</linearGradient>
</defs>
</svg>
