<svg width="297" height="164" viewBox="0 0 297 164" fill="none" xmlns="http://www.w3.org/2000/svg">
<g clip-path="url(#clip0_1330_438)">
<path d="M161.167 86.726V87.0799C161.167 90.3308 159.892 93.4483 157.624 95.7467C155.355 98.0451 152.279 99.336 149.072 99.3355H12.5518C9.34513 99.3352 6.26984 98.0438 4.00235 95.7455C1.73487 93.4472 0.460877 90.3302 0.460571 87.0799V86.726H161.167Z" fill="#F4F5F5"/>
<path d="M29.0138 28.3844C19.1481 30.8542 10.2916 23.1609 8.74524 16.0238L9.43212 15.8994C17.7476 14.0363 27.03 20.061 29.0138 28.3844Z" fill="#2EA4AB"/>
<path d="M267.487 160.56C264.634 159.311 263.986 154.761 266.374 152.745C268.762 150.729 273.059 152.199 273.755 155.269L271.093 135.97C270.481 131.533 269.992 126.574 272.637 122.985C275.114 119.624 279.954 118.547 283.839 119.994C287.724 121.441 290.595 125.049 291.813 129.059C293.032 133.068 292.744 137.425 291.68 141.479C290.617 145.534 288.809 149.342 286.982 153.106C285.109 156.963 282.837 161.143 278.834 162.562C275.01 163.919 267.487 160.56 267.487 160.56Z" fill="#F4F5F5"/>
<path d="M279.991 119.628C281.74 125.161 282.573 130.949 282.456 136.758C282.346 142.542 281.321 148.269 279.42 153.723C278.338 156.817 276.967 159.8 275.326 162.63C275.255 162.763 275.238 162.919 275.278 163.065C275.319 163.211 275.413 163.335 275.542 163.411C275.671 163.487 275.824 163.51 275.969 163.474C276.115 163.438 276.24 163.347 276.32 163.219C279.267 158.115 281.36 152.553 282.516 146.757C283.69 140.933 283.925 134.956 283.212 129.057C282.811 125.75 282.104 122.49 281.101 119.318C280.875 118.606 279.763 118.91 279.991 119.628Z" fill="#FDFEFE"/>
<path d="M265.796 153.455L274.907 163.16C275.418 163.705 276.232 162.879 275.721 162.335L266.61 152.63C266.098 152.085 265.285 152.911 265.796 153.455Z" fill="#FDFEFE"/>
<path d="M258.056 116.813C257.731 116.813 257.417 116.695 257.172 116.48C251.546 112.767 246.538 108.171 242.336 102.863C242.079 102.616 241.928 102.277 241.915 101.918C241.901 101.559 242.027 101.209 242.265 100.943L245.027 97.8514L245.595 98.3737L242.834 101.465C242.729 101.582 242.674 101.737 242.682 101.895C242.69 102.054 242.759 102.202 242.875 102.309L242.915 102.352C247.075 107.612 252.036 112.165 257.611 115.841L257.662 115.88C257.777 115.986 257.93 116.042 258.086 116.034C258.242 116.026 258.389 115.956 258.494 115.838L263.883 109.807C263.983 109.695 264.037 109.548 264.035 109.397C264.033 109.245 263.974 109.101 263.87 108.992C262.622 108.302 261.403 107.55 260.248 106.756L260.679 106.113C261.827 106.902 263.04 107.649 264.282 108.333L264.356 108.387C264.488 108.508 264.596 108.654 264.672 108.817C264.748 108.981 264.792 109.157 264.801 109.338C264.81 109.518 264.783 109.699 264.723 109.869C264.663 110.039 264.571 110.195 264.451 110.329L259.063 116.361C258.944 116.495 258.799 116.604 258.638 116.681C258.477 116.758 258.302 116.802 258.124 116.811C258.101 116.812 258.079 116.813 258.056 116.813Z" fill="#4B5152"/>
<path d="M252.115 106.659C253.808 108.211 255.546 109.062 255.999 108.557C256.058 108.471 256.095 108.372 256.107 108.268C256.119 108.164 256.105 108.059 256.068 107.962C255.884 107.389 255.591 106.859 255.204 106.402C253.7 105.317 252.238 104.146 250.818 102.89C250.373 102.742 250.032 102.746 249.867 102.933C249.843 102.959 249.824 102.99 249.809 103.022C249.525 103.609 250.511 105.185 252.115 106.659Z" fill="#2EA4AB"/>
<path d="M241.916 94.1542C241.93 94.5083 242.082 94.8424 242.338 95.0838C244.611 97.9313 247.11 100.586 249.809 103.022C251.784 104.808 253.875 106.458 256.068 107.962C256.432 108.214 256.801 108.46 257.173 108.701C257.417 108.917 257.731 109.036 258.055 109.035C258.079 109.035 258.102 109.031 258.125 109.031C258.303 109.023 258.478 108.979 258.639 108.901C258.801 108.824 258.945 108.715 259.065 108.58L264.452 102.551C264.694 102.281 264.819 101.924 264.801 101.559C264.783 101.194 264.623 100.852 264.356 100.607L264.283 100.552C258.401 97.3321 253.374 92.7193 249.629 87.1065L249.571 87.0365C249.304 86.7917 248.952 86.6644 248.592 86.6826C248.232 86.7009 247.894 86.8631 247.653 87.1338L242.265 93.1624C242.145 93.2962 242.053 93.4527 241.993 93.6229C241.933 93.7932 241.907 93.9737 241.916 94.1542ZM242.683 94.1153C242.679 94.0375 242.69 93.9597 242.716 93.8863C242.742 93.8128 242.781 93.7453 242.833 93.6875L248.22 87.6549C248.273 87.5964 248.336 87.5491 248.406 87.5157C248.477 87.4823 248.553 87.4635 248.631 87.4605C248.772 87.4518 248.911 87.4961 249.022 87.5849C252.823 93.2674 257.915 97.9414 263.869 101.214C263.973 101.322 264.032 101.466 264.035 101.617C264.037 101.768 263.984 101.914 263.884 102.026L258.493 108.059C258.442 108.118 258.379 108.165 258.309 108.199C258.239 108.232 258.163 108.251 258.086 108.253C257.93 108.261 257.777 108.207 257.66 108.102L257.61 108.063C256.797 107.534 255.995 106.98 255.204 106.402C253.7 105.317 252.238 104.146 250.818 102.89C247.951 100.355 245.306 97.5726 242.913 94.5743L242.875 94.5315C242.76 94.4235 242.691 94.2741 242.683 94.1153Z" fill="#4B5152"/>
<path d="M255.998 100.779C256.449 100.275 255.442 98.6058 253.749 97.0518C252.056 95.4979 250.318 94.6474 249.867 95.1521C249.416 95.6568 250.423 97.3257 252.116 98.8796C253.809 100.434 255.547 101.284 255.998 100.779Z" fill="#2EA4AB"/>
<path d="M222.144 158.625L217.439 158.624L215.201 140.232L222.144 140.233L222.144 158.625Z" fill="#FFB8B8"/>
<path d="M223.343 163.247L208.174 163.246V163.052C208.174 162.266 208.327 161.488 208.624 160.762C208.92 160.036 209.355 159.376 209.904 158.82C210.452 158.265 211.103 157.824 211.819 157.523C212.535 157.222 213.303 157.068 214.079 157.068H214.079L223.344 157.068L223.343 163.247Z" fill="#333738"/>
<path d="M235.958 158.625L231.254 158.624L229.015 140.232L235.959 140.233L235.958 158.625Z" fill="#FFB8B8"/>
<path d="M237.158 163.247L221.989 163.246V163.052C221.989 162.266 222.141 161.488 222.438 160.762C222.735 160.036 223.17 159.376 223.718 158.82C224.266 158.265 224.917 157.824 225.633 157.523C226.35 157.222 227.117 157.068 227.893 157.068H227.893L237.158 157.068L237.158 163.247Z" fill="#333738"/>
<path d="M239.115 84.2948L237.992 151.852C237.988 152.066 237.941 152.277 237.854 152.471C237.766 152.666 237.64 152.84 237.483 152.983C237.325 153.126 237.141 153.235 236.941 153.302C236.74 153.37 236.528 153.394 236.318 153.375L230.813 152.868C230.452 152.834 230.114 152.673 229.859 152.411C229.605 152.15 229.45 151.805 229.422 151.439L226.199 109.298C226.191 109.199 226.147 109.107 226.074 109.04C226.001 108.974 225.907 108.938 225.809 108.94C225.711 108.942 225.617 108.981 225.547 109.051C225.477 109.121 225.436 109.215 225.433 109.314L223.822 152.419C223.807 152.821 223.639 153.201 223.353 153.481C223.067 153.76 222.685 153.916 222.288 153.916H216.384C215.993 153.916 215.617 153.764 215.332 153.493C215.048 153.222 214.876 152.85 214.852 152.455L210.719 83.9058L235.278 77.6827L239.115 84.2948Z" fill="#4B5152"/>
<path d="M221.302 20.8595C226.507 20.8595 230.727 16.5825 230.727 11.3066C230.727 6.03074 226.507 1.75378 221.302 1.75378C216.097 1.75378 211.877 6.03074 211.877 11.3066C211.877 16.5825 216.097 20.8595 221.302 20.8595Z" fill="#FFB8B8"/>
<path d="M209.878 86.3044C209.715 86.1446 209.584 85.9535 209.495 85.7421C209.405 85.5308 209.357 85.3035 209.355 85.0734L208.719 39.0061C208.681 36.6626 209.376 34.3672 210.705 32.4496C212.035 30.5319 213.93 29.0907 216.118 28.3329C217.001 24.2726 221.7 23.764 224.44 23.8247C225.124 23.8397 225.794 24.0215 226.394 24.3548C226.993 24.6881 227.505 25.1631 227.885 25.7394L229.849 28.7253L234.177 31.2971C236.181 32.4822 237.761 34.2817 238.69 36.4359C239.619 38.5901 239.849 40.9877 239.346 43.2829L238.68 46.3553C236.333 57.2299 236.557 68.5128 239.331 79.2833L240.672 84.4657C240.742 84.7356 240.748 85.0185 240.688 85.2908C240.628 85.5632 240.504 85.8171 240.328 86.0313C240.151 86.2455 239.927 86.4138 239.673 86.5223C239.42 86.6307 239.144 86.6761 238.87 86.6546L237.312 86.5331C236.908 86.5021 236.527 86.3276 236.237 86.0404C235.947 85.7531 235.766 85.3715 235.727 84.9625L235.469 82.3501C235.464 82.3021 235.442 82.2576 235.407 82.2252C235.371 82.1929 235.325 82.1749 235.278 82.1749C235.23 82.1749 235.184 82.1929 235.149 82.2252C235.114 82.2576 235.092 82.3021 235.087 82.3501L234.837 84.8793C234.795 85.3066 234.6 85.7033 234.288 85.9939C233.976 86.2845 233.569 86.4487 233.146 86.4552L211.108 86.799C211.099 86.799 211.089 86.7994 211.08 86.7994C210.631 86.8002 210.199 86.6225 209.878 86.3044Z" fill="#808989"/>
<path d="M222.039 16.8131C222.078 18.1635 223.003 18.9448 224.138 19.6521C225.274 20.3594 226.601 20.6661 227.902 20.962C228.077 21.056 228.272 21.1028 228.47 21.0979C228.668 21.093 228.861 21.0365 229.031 20.9339C229.201 20.8313 229.341 20.6861 229.44 20.5122C229.538 20.3383 229.591 20.1416 229.592 19.9412L230.785 15.3426C231.207 13.8736 231.514 12.3732 231.703 10.8554C231.991 7.93473 231.308 4.79288 229.297 2.68119C227.285 0.569513 223.797 -0.180628 221.387 1.44639C218.527 -2.25627 205.453 5.92429 208.678 8.49902C209.252 8.95706 210.129 8.37747 210.857 8.32129C211.586 8.26511 212.402 8.39495 212.864 8.9678C213.469 9.7162 213.205 10.831 213.454 11.7646C213.557 12.0931 213.724 12.3977 213.943 12.6608C214.163 12.9239 214.432 13.1403 214.735 13.2975C215.037 13.4547 215.368 13.5497 215.707 13.5769C216.046 13.604 216.387 13.5629 216.71 13.4559C217.312 13.1552 217.878 12.7861 218.398 12.3557C218.957 11.9786 219.663 11.7 220.292 11.9378C221.12 12.2513 221.415 13.2798 221.49 14.1733C221.616 15.0644 221.8 15.9462 222.039 16.8131Z" fill="#333738"/>
<path d="M219.838 42.4156L218.303 61.4739L210.245 81.31L222.14 61.8628L219.838 42.4156Z" fill="#626A6B"/>
<path d="M208.36 88.6969C208.8 88.3389 209.157 87.8875 209.407 87.3746C209.656 86.8616 209.791 86.2994 209.802 85.7278C209.814 85.1561 209.702 84.5888 209.474 84.0659C209.246 83.5429 208.907 83.077 208.482 82.701L213.616 69.8129L206.631 71.2426L202.827 83.2621C202.251 84.0275 201.972 84.9806 202.043 85.9405C202.114 86.9005 202.53 87.8007 203.212 88.4706C203.894 89.1406 204.795 89.5336 205.744 89.5753C206.693 89.617 207.624 89.3045 208.36 88.6969Z" fill="#FFB8B8"/>
<path d="M207.987 83.0128L204.033 81.5685C203.626 81.4175 203.289 81.1173 203.089 80.7272C202.889 80.3371 202.84 79.8852 202.953 79.4606L209.475 55.2608L210.469 33.3896C210.499 32.7294 210.659 32.0819 210.938 31.4846C211.217 30.8874 211.61 30.3523 212.095 29.9105C212.58 29.4688 213.147 29.1292 213.762 28.9114C214.378 28.6936 215.03 28.6021 215.681 28.6421C216.332 28.6821 216.968 28.8528 217.553 29.1443C218.138 29.4359 218.661 29.8424 219.089 30.3403C219.518 30.8382 219.845 31.4175 220.051 32.0446C220.256 32.6716 220.337 33.3339 220.288 33.9929L218.512 57.9415L210.202 81.9463C210.076 82.309 209.835 82.6197 209.518 82.8305C209.201 83.0412 208.824 83.1405 208.446 83.1129C208.289 83.1008 208.134 83.0671 207.987 83.0128Z" fill="#808989"/>
<path d="M248.733 89.961C249.003 89.4588 249.161 88.9028 249.196 88.3322C249.231 87.7615 249.142 87.19 248.935 86.6579C248.729 86.1258 248.41 85.6462 248 85.2526C247.591 84.8591 247.102 84.5613 246.567 84.3803L246.405 70.4824L240.503 74.5294L241.561 87.1066C241.321 88.0379 241.426 89.0262 241.856 89.8844C242.286 90.7425 243.012 91.4108 243.896 91.7627C244.78 92.1145 245.761 92.1254 246.653 91.7934C247.544 91.4613 248.284 90.8093 248.733 89.961Z" fill="#FFB8B8"/>
<path d="M246.228 84.8617L242.03 85.0729C241.597 85.0926 241.172 84.9471 240.839 84.6652C240.506 84.3832 240.29 83.9853 240.232 83.5496L237.052 58.6709L229.656 38.0998C229.433 37.4789 229.334 36.8193 229.364 36.1592C229.395 35.499 229.554 34.8517 229.834 34.2547C230.113 33.6577 230.507 33.1229 230.993 32.6816C231.478 32.2403 232.045 31.9011 232.661 31.6839C233.276 31.4667 233.929 31.3757 234.579 31.4162C235.23 31.4567 235.866 31.628 236.451 31.92C237.036 32.212 237.558 32.6189 237.986 33.1172C238.415 33.6154 238.741 34.195 238.946 34.8222L246.411 57.6154L247.866 83.0125C247.888 83.3964 247.784 83.7769 247.572 84.0953C247.359 84.4137 247.049 84.6525 246.689 84.7748C246.54 84.8248 246.385 84.8541 246.228 84.8617Z" fill="#808989"/>
<path d="M296.616 163.444H150.415C150.313 163.444 150.215 163.403 150.143 163.331C150.071 163.258 150.031 163.159 150.031 163.056C150.031 162.952 150.071 162.853 150.143 162.78C150.215 162.708 150.313 162.667 150.415 162.667H296.616C296.718 162.667 296.816 162.708 296.888 162.78C296.96 162.853 297 162.952 297 163.056C297 163.159 296.96 163.258 296.888 163.331C296.816 163.403 296.718 163.444 296.616 163.444Z" fill="#626A6B"/>
<path d="M124.029 79.4722C121.825 79.4722 120.072 78.8079 118.819 77.4975C115.987 74.5356 116.164 68.8266 116.307 64.2392C116.348 62.9047 116.387 61.644 116.348 60.5881L116.347 60.5722C116.357 58.5091 117.17 56.5333 118.609 55.0741C120.048 53.6149 121.997 52.7901 124.032 52.7789H142.304C144.505 52.7789 146.256 53.4422 147.508 54.7509C150.341 57.7104 150.165 63.418 150.024 68.0043C149.983 69.3416 149.944 70.6049 149.985 71.6627C149.978 73.7289 149.166 75.7086 147.726 77.1711C146.286 78.6336 144.335 79.4606 142.296 79.4722H124.029ZM117.115 60.5666C117.155 61.6478 117.115 62.9185 117.074 64.2637C116.936 68.7043 116.764 74.2308 119.37 76.956C120.489 78.1257 122.013 78.6943 124.029 78.6943H142.295C144.128 78.6845 145.884 77.9419 147.18 76.6279C148.476 75.3139 149.208 73.5347 149.218 71.6766C149.177 70.6078 149.216 69.3313 149.257 67.9799C149.394 63.5405 149.564 58.0153 146.958 55.2925C145.84 54.1246 144.317 53.5567 142.304 53.5567H124.033C122.202 53.5671 120.449 54.3089 119.153 55.6212C117.858 56.9335 117.126 58.7105 117.115 60.5666Z" fill="#4B5152"/>
<path d="M24.9771 29.1002C21.7732 29.0805 18.6391 28.1501 15.931 26.4146C11.9637 23.9159 8.96816 19.9141 8.11338 15.9713L8.02771 15.5761L9.09983 15.3816C17.5393 13.4937 27.0848 19.5776 29.1298 28.1531L29.2194 28.5291L28.8489 28.622C27.5822 28.9398 26.282 29.1003 24.9771 29.1002ZM8.95579 16.198C9.87666 19.815 12.6715 23.4457 16.3361 25.7539C19.8793 28.0523 24.1731 28.8436 28.2877 27.9564C26.1482 19.9669 17.1893 14.3604 9.25805 16.143L8.95579 16.198Z" fill="#4B5152"/>
<path d="M14.3315 73.3005C11.8209 73.3005 9.78122 72.1618 8.58374 70.0845C7.91255 68.876 7.55975 67.5127 7.55933 66.1258C7.5589 64.739 7.91086 63.3754 8.5813 62.1665C9.79793 60.0537 11.8863 58.9075 14.4653 58.9476H38.8107C41.381 58.9144 43.4709 60.0554 44.6883 62.1706C45.3588 63.3793 45.7109 64.7426 45.7108 66.1292C45.7107 67.5158 45.3583 68.879 44.6876 70.0876C43.4707 72.1979 41.3814 73.325 38.8049 73.2996H14.4591C14.4164 73.3002 14.3739 73.3005 14.3315 73.3005ZM14.3457 59.7245C12.1068 59.7245 10.2982 60.7281 9.24412 62.5586C8.64013 63.6478 8.32307 64.8762 8.32347 66.1256C8.32387 67.375 8.64173 68.6032 9.24642 69.692C10.3183 71.5516 12.1639 72.5582 14.4533 72.5217H38.8107C41.1025 72.5587 42.9539 71.5526 44.025 69.695C44.6292 68.6062 44.9466 67.3781 44.9467 66.1289C44.9468 64.8797 44.6295 63.6515 44.0254 62.5626C42.9536 60.7003 41.1019 59.6976 38.8161 59.7255H14.4573C14.4201 59.7249 14.3827 59.7245 14.3457 59.7245Z" fill="#4B5152"/>
<path d="M130.277 62.028H122.602C122.093 62.028 121.605 61.8232 121.245 61.4585C120.886 61.0938 120.683 60.5991 120.683 60.0833C120.683 59.5676 120.886 59.0729 121.245 58.7082C121.605 58.3435 122.093 58.1386 122.602 58.1386H130.277C130.786 58.1386 131.274 58.3435 131.633 58.7082C131.993 59.0729 132.195 59.5676 132.195 60.0833C132.195 60.5991 131.993 61.0938 131.633 61.4585C131.274 61.8232 130.786 62.028 130.277 62.028Z" fill="#2EA4AB"/>
<path d="M130.277 68.2511H122.602C122.093 68.2511 121.605 68.0462 121.245 67.6815C120.886 67.3168 120.683 66.8222 120.683 66.3064C120.683 65.7906 120.886 65.296 121.245 64.9313C121.605 64.5666 122.093 64.3617 122.602 64.3617H130.277C130.786 64.3617 131.274 64.5666 131.633 64.9313C131.993 65.296 132.195 65.7906 132.195 66.3064C132.195 66.8222 131.993 67.3168 131.633 67.6815C131.274 68.0462 130.786 68.2511 130.277 68.2511Z" fill="#2EA4AB"/>
<path d="M130.277 74.4742H122.602C122.093 74.4742 121.605 74.2693 121.245 73.9046C120.886 73.5399 120.683 73.0453 120.683 72.5295C120.683 72.0137 120.886 71.5191 121.245 71.1544C121.605 70.7897 122.093 70.5848 122.602 70.5848H130.277C130.786 70.5848 131.274 70.7897 131.633 71.1544C131.993 71.5191 132.195 72.0137 132.195 72.5295C132.195 73.0453 131.993 73.5399 131.633 73.9046C131.274 74.2693 130.786 74.4742 130.277 74.4742Z" fill="#2EA4AB"/>
<path d="M143.707 62.028H136.033C135.524 62.028 135.036 61.8232 134.676 61.4585C134.316 61.0938 134.114 60.5991 134.114 60.0833C134.114 59.5676 134.316 59.0729 134.676 58.7082C135.036 58.3435 135.524 58.1386 136.033 58.1386H143.707C144.216 58.1386 144.704 58.3435 145.064 58.7082C145.424 59.0729 145.626 59.5676 145.626 60.0833C145.626 60.5991 145.424 61.0938 145.064 61.4585C144.704 61.8232 144.216 62.028 143.707 62.028Z" fill="#2EA4AB"/>
<path d="M143.707 68.2511H136.033C135.524 68.2511 135.036 68.0462 134.676 67.6815C134.316 67.3168 134.114 66.8222 134.114 66.3064C134.114 65.7906 134.316 65.296 134.676 64.9313C135.036 64.5666 135.524 64.3617 136.033 64.3617H143.707C144.216 64.3617 144.704 64.5666 145.064 64.9313C145.424 65.296 145.626 65.7906 145.626 66.3064C145.626 66.8222 145.424 67.3168 145.064 67.6815C144.704 68.0462 144.216 68.2511 143.707 68.2511Z" fill="#2EA4AB"/>
<path d="M143.707 74.4742H136.033C135.524 74.4742 135.036 74.2693 134.676 73.9046C134.316 73.5399 134.114 73.0453 134.114 72.5295C134.114 72.0137 134.316 71.5191 134.676 71.1544C135.036 70.7897 135.524 70.5848 136.033 70.5848H143.707C144.216 70.5848 144.704 70.7897 145.064 71.1544C145.424 71.5191 145.626 72.0137 145.626 72.5295C145.626 73.0453 145.424 73.5399 145.064 73.9046C144.704 74.2693 144.216 74.4742 143.707 74.4742Z" fill="#2EA4AB"/>
<path d="M161.167 34.3901H0.460571V35.168H161.167V34.3901Z" fill="#4B5152"/>
<path d="M148.504 99.561H12.6631C9.30582 99.5572 6.08711 98.2037 3.71313 95.7975C1.33916 93.3913 0.00379241 90.1288 0 86.7259V19.8277C0.00379241 16.4248 1.33916 13.1623 3.71313 10.7561C6.08711 8.3499 9.30582 6.9964 12.6631 6.99255H148.504C151.861 6.9964 155.08 8.3499 157.454 10.7561C159.828 13.1623 161.163 16.4248 161.167 19.8277V86.7259C161.163 90.1288 159.828 93.3913 157.454 95.7975C155.08 98.2037 151.861 99.5572 148.504 99.561ZM12.6631 7.77044C9.5093 7.77407 6.48567 9.04556 4.25558 11.3059C2.02548 13.5663 0.771045 16.631 0.767462 19.8277V86.7259C0.771046 89.9226 2.02549 92.9873 4.25558 95.2477C6.48568 97.508 9.5093 98.7795 12.6631 98.7831H148.504C151.658 98.7795 154.681 97.5081 156.912 95.2477C159.142 92.9873 160.396 89.9226 160.4 86.7259V19.8277C160.396 16.631 159.142 13.5663 156.912 11.3059C154.681 9.04555 151.658 7.77406 148.504 7.77044H12.6631Z" fill="#4B5152"/>
</g>
<defs>
<clipPath id="clip0_1330_438">
<rect width="297" height="163" fill="white" transform="translate(0 0.5)"/>
</clipPath>
</defs>
</svg>
