<svg width="40" height="40" viewBox="0 0 40 40" fill="none" xmlns="http://www.w3.org/2000/svg">
<g clip-path="url(#clip0_1775_585)">
<rect x="6.66675" y="40" width="40" height="26.6667" rx="1.28" transform="rotate(-90 6.66675 40)" fill="#E60012"/>
<g clip-path="url(#clip1_1775_585)">
<path d="M26.6417 16.7064L23.295 13.3581C21.4826 11.5473 18.5187 11.5473 16.7063 13.3581L13.3595 16.7064C11.5471 18.5173 11.5471 21.4827 13.3595 23.2936L16.7063 26.6419C18.5187 28.4527 21.4826 28.4527 23.295 26.6419L26.6417 23.2936C28.4526 21.4827 28.4526 18.5173 26.6417 16.7064ZM18.0371 24.9161H18.0158C17.7484 24.9161 17.5327 24.7079 17.5206 24.4421C17.516 24.3099 17.5616 24.1838 17.6512 24.0866C17.7408 23.9894 17.8639 23.9332 17.9961 23.9271C18.268 23.9149 18.4989 24.1276 18.5111 24.4011C18.5217 24.6745 18.309 24.9054 18.0371 24.9161ZM23.9832 22.85C23.3041 23.9286 22.4078 24.6867 21.5844 24.8781C21.5813 24.8796 21.5737 24.8811 21.5646 24.8826C21.4127 24.91 21.2653 24.9237 21.1241 24.9237C20.5939 24.9237 20.2186 24.7216 19.9528 24.5454C19.6884 24.3707 19.4423 24.1382 19.2205 23.8542C17.8062 22.0372 17.7089 18.6297 17.7029 18.2469C17.6877 17.3414 17.8183 16.1124 18.5263 15.4106C18.8711 15.0672 19.3041 14.8925 19.813 14.8925H19.895C20.4055 14.894 20.8385 15.0672 21.1833 15.4106C21.8912 16.1124 22.0219 17.3414 22.0067 18.2469C21.9915 19.1918 21.8183 21.0224 20.8385 22.6616C20.7579 22.7953 20.6121 22.8773 20.4571 22.8773C20.3766 22.8773 20.2991 22.8561 20.2293 22.815C20.0196 22.6905 19.9513 22.417 20.0758 22.2058C20.761 21.0589 21.0922 19.7964 21.1195 18.2317C21.1362 17.1956 20.9372 16.4163 20.5574 16.0395C20.3827 15.8648 20.1655 15.7797 19.895 15.7797H19.816C19.5441 15.7797 19.3269 15.8648 19.1506 16.0395C18.7724 16.4178 18.5734 17.1956 18.5901 18.2317C18.6113 19.5108 18.9167 22.0175 19.9209 23.3088C20.0834 23.5169 20.2596 23.684 20.4419 23.804C20.6182 23.921 20.8172 24.0365 21.1271 24.0365C21.2107 24.0365 21.3018 24.0273 21.396 24.0106C21.9718 23.8724 22.6934 23.2313 23.2312 22.3775C23.3132 22.2469 23.453 22.1694 23.6079 22.1694C23.69 22.1694 23.772 22.1922 23.8434 22.2378C23.9437 22.3 24.0135 22.3988 24.0394 22.5142C24.0667 22.6297 24.0454 22.7497 23.9832 22.85Z" fill="white"/>
</g>
</g>
<defs>
<clipPath id="clip0_1775_585">
<rect x="6.66675" y="40" width="40" height="26.6667" rx="1.28" transform="rotate(-90 6.66675 40)" fill="white"/>
</clipPath>
<clipPath id="clip1_1775_585">
<rect width="16" height="16" fill="white" transform="translate(12 12)"/>
</clipPath>
</defs>
</svg>
