<svg width="40" height="40" viewBox="0 0 40 40" fill="none" xmlns="http://www.w3.org/2000/svg">
<rect x="6.66675" y="40" width="40" height="26.6667" rx="2" transform="rotate(-90 6.66675 40)" fill="black"/>
<g clip-path="url(#clip0_1775_537)">
<path d="M12.7802 22.2968H12.0016C12.0016 21.7306 11.9977 21.1754 12.0031 20.6197C12.0066 20.2544 11.9827 19.8816 12.0436 19.5248C12.23 18.4244 13.0951 17.7098 14.212 17.7083C17.0685 17.7048 19.9249 17.7068 22.7809 17.7068C23.7804 17.7068 24.7804 17.6853 25.7788 17.7143C26.6764 17.7402 27.4135 18.0941 27.8162 18.9486C27.9162 19.161 27.9832 19.4094 27.9887 19.6432C28.0091 20.4923 27.9972 21.3423 27.9967 22.1919C27.9967 22.2234 27.9887 22.2548 27.9832 22.2963H27.1966C27.1966 22.2079 27.1966 22.1204 27.1966 22.0325C27.1966 21.3328 27.1966 20.6332 27.1966 19.9336C27.1966 19.0965 26.6174 18.5123 25.7728 18.5098C24.3321 18.5058 22.8914 18.5088 21.4506 18.5088C19.0439 18.5088 16.6372 18.5233 14.2305 18.4993C13.5793 18.4928 12.7378 19.103 12.7922 19.9321C12.8427 20.6947 12.8012 21.4638 12.7997 22.2299C12.7997 22.2453 12.7912 22.2603 12.7807 22.2968H12.7802Z" fill="white"/>
</g>
<defs>
<clipPath id="clip0_1775_537">
<rect width="16" height="4.59756" fill="white" transform="translate(12 17.7)"/>
</clipPath>
</defs>
</svg>
