<svg width="40" height="40" viewBox="0 0 40 40" fill="none" xmlns="http://www.w3.org/2000/svg">
<rect x="6.66675" y="40" width="40" height="26.6667" rx="2" transform="rotate(-90 6.66675 40)" fill="#0066B3"/>
<g clip-path="url(#clip0_1775_573)">
<path d="M27.5498 16.61H26.5042V19.3136H22.223V16.61H21.1774C20.9305 16.61 20.7273 16.8485 20.7273 17.1434V22.8582C20.7273 23.1517 20.9277 23.3915 21.1774 23.3915H22.223V20.489H26.5042V23.3915H27.5498C27.7995 23.3915 27.9999 23.1502 27.9999 22.8582V17.1434C27.9999 16.8499 27.8009 16.61 27.5498 16.61Z" fill="white"/>
<path d="M18.9805 16.61H17.9321V21.8013L14.7854 17.6542C14.2619 17.0502 13.9021 16.61 13.0653 16.61H12V22.8567C12 23.1502 12.2004 23.3901 12.4515 23.3901H13.4971V18.1748L16.665 22.2937C17.1998 22.9132 17.6767 23.3915 18.4514 23.3915H19.4292V17.1434C19.4292 16.8499 19.2289 16.61 18.9805 16.61Z" fill="white"/>
</g>
<defs>
<clipPath id="clip0_1775_573">
<rect width="16" height="6.78014" fill="white" transform="translate(12 16.61)"/>
</clipPath>
</defs>
</svg>
