<svg width="25" height="24" viewBox="0 0 25 24" fill="none" xmlns="http://www.w3.org/2000/svg">
<mask id="mask0_3040_219" style="mask-type:alpha" maskUnits="userSpaceOnUse" x="0" y="0" width="25" height="24">
<rect x="0.5" width="24" height="24" fill="#D9D9D9"/>
</mask>
<g mask="url(#mask0_3040_219)">
<path d="M9.76537 18.5C9.4128 18.5 9.08749 18.4185 8.78942 18.2557C8.49134 18.0929 8.24101 17.8717 8.03844 17.5923L4.82117 13.0442C4.5968 12.7263 4.48462 12.3782 4.48462 12C4.48462 11.6218 4.5968 11.2737 4.82117 10.9558L8.03844 6.38848C8.23459 6.10899 8.48492 5.89104 8.78942 5.73463C9.0939 5.57821 9.41922 5.5 9.76537 5.5H19.1499C19.6487 5.5 20.0746 5.67661 20.4278 6.02982C20.781 6.38302 20.9576 6.80898 20.9576 7.3077V16.6923C20.9576 17.191 20.781 17.6169 20.4278 17.9701C20.0746 18.3233 19.6487 18.5 19.1499 18.5H9.76537ZM11.2 15.1269C11.3448 15.2718 11.5205 15.3442 11.7269 15.3442C11.9333 15.3442 12.1089 15.2718 12.2538 15.1269L14.3269 13.0538L16.4 15.1269C16.5448 15.2718 16.7205 15.3442 16.9269 15.3442C17.1333 15.3442 17.3089 15.2718 17.4538 15.1269C17.5987 14.982 17.6711 14.8064 17.6711 14.6C17.6711 14.3936 17.5987 14.2179 17.4538 14.0731L15.3807 12L17.4538 9.92688C17.5987 9.78201 17.6711 9.60638 17.6711 9.39998C17.6711 9.19358 17.5987 9.01794 17.4538 8.87308C17.3089 8.72819 17.1333 8.65575 16.9269 8.65575C16.7205 8.65575 16.5448 8.72819 16.4 8.87308L14.3269 10.9462L12.2538 8.87308C12.1089 8.72819 11.9333 8.65575 11.7269 8.65575C11.5205 8.65575 11.3448 8.72819 11.2 8.87308C11.0551 9.01794 10.9827 9.19358 10.9827 9.39998C10.9827 9.60638 11.0551 9.78201 11.2 9.92688L13.2731 12L11.2 14.0731C11.0551 14.2179 10.9827 14.3936 10.9827 14.6C10.9827 14.8064 11.0551 14.982 11.2 15.1269Z" fill="#B4B9B9"/>
</g>
</svg>
