<svg width="20" height="21" viewBox="0 0 20 21" fill="none" xmlns="http://www.w3.org/2000/svg">
<g clip-path="url(#clip0_1330_337)">
<path d="M10.1897 20.4313C12.8121 20.4313 15.0136 19.5454 16.6216 18.0174L13.5567 15.5813C12.7366 16.1682 11.6358 16.5779 10.1897 16.5779C7.62133 16.5779 5.44142 14.8395 4.66435 12.4366L4.55044 12.4466L1.55239 14.8273L1.51318 14.9391C3.11034 18.1945 6.39103 20.4313 10.1897 20.4313Z" fill="#34A853"/>
<path d="M4.66432 12.4366C4.45928 11.8166 4.34061 11.1521 4.34061 10.4656C4.34061 9.77908 4.45928 9.11473 4.65353 8.49466L4.6481 8.3626L1.61247 5.94366L1.51315 5.99214C0.854887 7.34305 0.477173 8.86008 0.477173 10.4656C0.477173 12.0712 0.854887 13.5882 1.51315 14.9391L4.66432 12.4366Z" fill="#FBBC05"/>
<path d="M10.1897 4.35336C12.0135 4.35336 13.2437 5.16168 13.9452 5.83718L16.6863 3.09107C15.0029 1.4855 12.8121 0.5 10.1897 0.5C6.39103 0.5 3.11034 2.73672 1.51318 5.99214L4.65356 8.49466C5.44142 6.09183 7.62133 4.35336 10.1897 4.35336Z" fill="#EB4335"/>
<path d="M19.5137 10.6871C19.5137 9.8677 19.4489 9.26977 19.3087 8.64969H10.1897V12.348H15.5423C15.4345 13.2671 14.8517 14.6512 13.5567 15.5813L13.5385 15.7051L16.4218 17.9969L16.6215 18.0174C18.4561 16.2789 19.5137 13.7211 19.5137 10.6871Z" fill="#4285F4"/>
</g>
<defs>
<clipPath id="clip0_1330_337">
<rect width="19.0476" height="20" fill="white" transform="translate(0.476196 0.5)"/>
</clipPath>
</defs>
</svg>
