<svg width="102" height="16" viewBox="0 0 102 16" fill="none" xmlns="http://www.w3.org/2000/svg">
<g id="Group 470">
<path id="Vector" d="M0 0H7.60408C9.32327 0 10.8367 0.327622 12.1445 0.98286C13.4669 1.62286 14.4882 2.54476 15.2082 3.74857C15.9429 4.95238 16.3102 6.36952 16.3102 8C16.3102 9.63048 15.9429 11.0476 15.2082 12.2514C14.4882 13.4552 13.4669 14.3848 12.1445 15.04C10.8367 15.68 9.32327 16 7.60408 16H0V0ZM7.38367 11.7943C8.50041 11.7943 9.38939 11.4667 10.0506 10.8114C10.7265 10.141 11.0645 9.20381 11.0645 8C11.0645 6.79619 10.7265 5.86667 10.0506 5.21143C9.38939 4.54095 8.50041 4.20572 7.38367 4.20572H5.20163V11.7943H7.38367ZM18.2095 0H23.4111V16H18.2095V0ZM39.6906 16L39.6465 8.70857L36.2963 14.56H34.0041L30.6539 8.96V16H25.9152V0H30.1911L35.2163 8.52572L40.1094 0H44.3853L44.4294 16H39.6906ZM46.9445 0H52.1461V16H46.9445V0ZM62.0777 0C63.503 0 64.7446 0.24381 65.8026 0.731429C66.8605 1.21905 67.676 1.92 68.2491 2.83429C68.8222 3.74857 69.1087 4.81524 69.1087 6.03429C69.1087 7.25333 68.8222 8.32 68.2491 9.23429C67.676 10.1486 66.8605 10.8495 65.8026 11.3371C64.7446 11.8248 63.503 12.0686 62.0777 12.0686H59.8515V16H54.6499V0H62.0777ZM61.747 7.90857C62.4524 7.90857 62.9813 7.74858 63.334 7.42858C63.6866 7.09334 63.863 6.62857 63.863 6.03429C63.863 5.44 63.6866 4.98286 63.334 4.66286C62.9813 4.32762 62.4524 4.16 61.747 4.16H59.8515V7.90857H61.747ZM80.5534 13.2114H74.6905L73.6546 16H68.3648L75.1093 0H80.2228L86.9672 16H81.5893L80.5534 13.2114ZM79.1207 9.32572L77.6219 5.30286L76.1232 9.32572H79.1207ZM95.9761 10.1943V16H90.7745V10.1257L84.9557 0H90.4439L93.5957 5.53143L96.7696 0H101.795L95.9761 10.1943Z" fill="#B4B9B9"/>
</g>
</svg>
